<svg width="50" height="50" viewBox="0 0 1100 1740" xmlns="http://www.w3.org/2000/svg">
    <path style="stroke-width:36.9924;stroke-dasharray:none;fill:#999999;fill-opacity:1;stroke:#000;stroke-opacity:1" d="M567.264 23.653c-32.364-1.186-65.64.468-99.506 5.574-165.683 24.98-289.166 120.052-362.885 235.987-44.822 70.488-75.971 156.654-78.096 264.127-2.175 109.997 32.073 194.795 74.29 267.932 21.112 36.577 40.083 73.846 62.055 109.09 65.82 105.575 136.994 206.027 198.4 314.9 82.788 146.774 151.071 305.19 189.837 495.492 56.084-288.717 184.172-499.454 320.609-706.06 45.806-69.364 91.443-138.646 127.85-214.305 18.65-38.76 39.641-75.06 52.675-118.47 12.879-42.886 22-94.585 20.663-150.415-2.612-108.972-33.76-192.526-78.98-263.243-43.324-67.752-100.332-125.252-173.932-168.29-67.551-39.5-155.887-68.762-252.98-72.319zM550 344.805a183.333 183.333 0 0 1 183.312 183.312A183.333 183.333 0 0 1 550 711.497a183.333 183.333 0 0 1-183.312-183.38A183.333 183.333 0 0 1 550 344.805z"/>
</svg>
