<svg width="50" height="50" xml:space="preserve" viewBox="0 0 252.9 252.9" xmlns="http://www.w3.org/2000/svg">
    <g style="opacity:1;fill:none;fill-rule:nonzero;stroke:none;stroke-width:0;stroke-linecap:butt;stroke-linejoin:miter;stroke-miterlimit:10;stroke-dasharray:none">
        <path d="M45 1C28.8 1 15.667 14.133 15.667 30.333 15.667 50.968 45 89 45 89s29.333-38.032 29.333-58.667C74.333 14.133 61.2 1 45 1Zm0 41.067c-6.48 0-11.733-5.253-11.733-11.733C33.267 23.853 38.52 18.6 45 18.6s11.733 5.253 11.733 11.733S51.48 42.067 45 42.067z" style="opacity:1;fill:#ff4b4b;fill-rule:nonzero;stroke:none;stroke-width:1;stroke-linecap:butt;stroke-linejoin:miter;stroke-miterlimit:10;stroke-dasharray:none" transform="translate(.001) scale(2.81)"/>
        <path d="M45 43.067c-7.021 0-12.733-5.712-12.733-12.733C32.267 23.313 37.979 17.6 45 17.6c7.021 0 12.733 5.712 12.733 12.733 0 7.021-5.712 12.734-12.733 12.734zM45 19.6c-5.918 0-10.733 4.815-10.733 10.733S39.082 41.067 45 41.067s10.733-4.815 10.733-10.733S50.918 19.6 45 19.6Z" style="opacity:1;fill:#333;fill-rule:nonzero;stroke:none;stroke-width:1;stroke-linecap:butt;stroke-linejoin:miter;stroke-miterlimit:10;stroke-dasharray:none" transform="translate(.001) scale(2.81)"/>
        <path d="M45 90a.999.999 0 0 1-.792-.39c-1.206-1.563-29.542-38.54-29.542-59.277C14.667 13.607 28.274 0 45 0s30.333 13.607 30.333 30.333c0 20.737-28.335 57.713-29.541 59.277A.999.999 0 0 1 45 90Zm0-88C29.377 2 16.667 14.71 16.667 30.333c0 18.17 23.665 50.756 28.333 57.006 4.668-6.25 28.333-38.836 28.333-57.006C73.333 14.71 60.623 2 45 2Z" style="opacity:1;fill:#333;fill-rule:nonzero;stroke:none;stroke-width:1;stroke-linecap:butt;stroke-linejoin:miter;stroke-miterlimit:10;stroke-dasharray:none" transform="translate(.001) scale(2.81)"/>
    </g>
</svg>
