<svg width="50" height="50" xml:space="preserve" viewBox="0 0 252.9 252.9" xmlns="http://www.w3.org/2000/svg">
    <g style="opacity:1;fill:none;fill-rule:nonzero;stroke:none;stroke-width:0;stroke-linecap:butt;stroke-linejoin:miter;stroke-miterlimit:10;stroke-dasharray:none">
        <path d="M54.489 1.463A31.424 31.424 0 0 0 45.003 0c-9.649 0-18.284 4.362-24.041 11.214l14.834 12.48z" style="opacity:1;fill:#4070b7;fill-rule:nonzero;stroke:none;stroke-width:1;stroke-linecap:butt;stroke-linejoin:miter;stroke-miterlimit:10;stroke-dasharray:none" transform="matrix(2.81 0 0 2.81 0 0)"/>
        <path d="M20.955 11.214a31.275 31.275 0 0 0-7.356 20.183c0 5.907 1.177 10.69 3.11 14.977l19.081-22.68Z" style="opacity:1;fill:#ea4535;fill-rule:nonzero;stroke:none;stroke-width:1;stroke-linecap:butt;stroke-linejoin:miter;stroke-miterlimit:10;stroke-dasharray:none" transform="matrix(2.81 0 0 2.81 0 0)"/>
        <path d="M45.003 19.394c6.635 0 12.01 5.376 12.01 12.01 0 2.953-1.068 5.662-2.838 7.751 0 0 9.486-11.282 18.693-22.224C69.065 9.615 62.471 3.988 54.496 1.463L35.79 23.694a11.976 11.976 0 0 1 9.213-4.3" style="opacity:1;fill:#557ebf;fill-rule:nonzero;stroke:none;stroke-width:1;stroke-linecap:butt;stroke-linejoin:miter;stroke-miterlimit:10;stroke-dasharray:none" transform="matrix(2.81 0 0 2.81 0 0)"/>
        <path d="M45.003 43.408c-6.635 0-12.01-5.376-12.01-12.01 0-2.933 1.055-5.621 2.797-7.71L16.709 46.375c3.259 7.233 8.683 13.038 14.27 20.353L54.17 39.155a11.983 11.983 0 0 1-9.167 4.253" style="opacity:1;fill:#f9bc15;fill-rule:nonzero;stroke:none;stroke-width:1;stroke-linecap:butt;stroke-linejoin:miter;stroke-miterlimit:10;stroke-dasharray:none" transform="matrix(2.81 0 0 2.81 0 0)"/>
        <path d="M53.714 74.254c10.473-16.379 22.687-23.817 22.687-42.856a31.242 31.242 0 0 0-3.532-14.467L30.986 66.728c1.776 2.327 3.566 4.804 5.315 7.533C42.669 84.1 40.9 90 45.01 90c4.097 0 2.334-5.907 8.704-15.746" style="opacity:1;fill:#36a852;fill-rule:nonzero;stroke:none;stroke-width:1;stroke-linecap:butt;stroke-linejoin:miter;stroke-miterlimit:10;stroke-dasharray:none" transform="matrix(2.81 0 0 2.81 0 0)"/>
    </g>
</svg>
