<svg width="50" height="50" xml:space="preserve" viewBox="0 0 252.9 252.9" xmlns="http://www.w3.org/2000/svg">
    <g style="opacity:1;fill:none;fill-rule:nonzero;stroke:none;stroke-width:0;stroke-linecap:butt;stroke-linejoin:miter;stroke-miterlimit:10;stroke-dasharray:none">
        <path d="M45 90c-12.811 0-25.78-4.03-25.78-11.732 0-7.702 12.969-11.731 25.78-11.731 12.811 0 25.781 4.03 25.781 11.732C70.781 85.971 57.812 90 45 90Zm0-18.23c-13.294 0-20.547 4.292-20.547 6.498 0 2.206 7.252 6.498 20.547 6.498 13.295 0 20.547-4.292 20.547-6.498 0-2.205-7.252-6.498-20.547-6.498z" style="opacity:1;fill:#277cff;fill-rule:nonzero;stroke:none;stroke-width:1;stroke-linecap:butt;stroke-linejoin:miter;stroke-miterlimit:10;stroke-dasharray:none" transform="scale(2.81)"/>
        <path d="M45 0C30.604 0 18.934 11.67 18.934 26.066c0 14.396 13.032 36.644 26.066 52.587C58.033 62.71 71.066 40.462 71.066 26.066S59.396 0 45 0Zm0 37.469c-6.516 0-11.798-5.282-11.798-11.798S38.484 13.873 45 13.873s11.798 5.282 11.798 11.798S51.516 37.469 45 37.469z" style="opacity:1;fill:#dc2028;fill-rule:nonzero;stroke:none;stroke-width:1;stroke-linecap:butt;stroke-linejoin:miter;stroke-miterlimit:10;stroke-dasharray:none" transform="scale(2.81)"/>
    </g>
</svg>
