<?xml version="1.0" encoding="UTF-8" standalone="no"?>
<svg
   xml:space="preserve"
   width="2048"
   height="2048"
   version="1.1"
   id="svg9"
   sodipodi:docname="logo.svg"
   inkscape:version="1.4.2 (f4327f4, 2025-05-13)"
   xmlns:inkscape="http://www.inkscape.org/namespaces/inkscape"
   xmlns:sodipodi="http://sodipodi.sourceforge.net/DTD/sodipodi-0.dtd"
   xmlns="http://www.w3.org/2000/svg"
   xmlns:svg="http://www.w3.org/2000/svg"><sodipodi:namedview
     id="namedview9"
     pagecolor="#ffffff"
     bordercolor="#000000"
     borderopacity="0.25"
     inkscape:showpageshadow="2"
     inkscape:pageopacity="0.0"
     inkscape:pagecheckerboard="0"
     inkscape:deskcolor="#d1d1d1"
     inkscape:zoom="0.27863046"
     inkscape:cx="1480.4555"
     inkscape:cy="1225.6377"
     inkscape:window-width="1920"
     inkscape:window-height="1009"
     inkscape:window-x="-8"
     inkscape:window-y="-8"
     inkscape:window-maximized="1"
     inkscape:current-layer="svg9" /><defs
     id="defs1" /><path
     d="m 1093.6638,424.83296 h 447.3734 a 10.825486,10.825486 0 0 1 10.8255,10.82373 v 21.32526 a 10.825486,10.825486 0 0 1 -10.8255,10.82549 h -447.3734 a 10.825486,10.825486 0 0 1 -10.8255,-10.82549 v -21.32526 a 10.825486,10.825486 0 0 1 10.8255,-10.82198 z m 129.897,162.37002 h 317.4799 a 10.825486,10.825486 0 0 1 10.822,10.82549 v 21.32526 a 10.825486,10.825486 0 0 1 -10.822,10.82549 h -317.4799 a 10.825486,10.825486 0 0 1 -10.8254,-10.82549 v -21.32701 a 10.825486,10.825486 0 0 1 10.8254,-10.82549 z m 129.8954,162.37178 h 187.581 a 10.825486,10.825486 0 0 1 10.8272,10.82374 v 21.32701 a 10.825486,10.825486 0 0 1 -10.8254,10.82373 h -187.5828 a 10.825486,10.825486 0 0 1 -10.8238,-10.82373 V 760.3985 a 10.825486,10.825486 0 0 1 10.822,-10.82374 z"
     style="fill:#00b1ca;fill-opacity:1;stroke:none;stroke-width:4.60619;stroke-dasharray:none;stroke-opacity:1"
     id="path3" /><path
     d="m 557.68831,1517.6384 h -73.14096 c -53.94739,0 -101.24241,-42.1747 -101.24241,-94.2032 V 353.24621 c 0,-52.02688 45.32788,-94.2032 101.24241,-94.2032 H 685.76858 M 1515.5774,1517.6384 h 47.8741 c 55.9145,0 101.2407,-42.1764 101.2407,-94.2032 V 353.24621 c 0,-52.02688 -45.328,-94.2032 -101.2407,-94.2032 h -201.2201"
     style="fill:none;fill-opacity:1;stroke:#00b1ca;stroke-width:77.3299;stroke-dasharray:none;stroke-opacity:1"
     id="path4"
     sodipodi:nodetypes="csssccscsc" /><path
     d="m 732.93799,663.82893 a 335.48149,335.48149 0 0 0 34.5568,-76.37378 148.44329,148.44329 0 1 0 -281.09489,0 335.48149,335.48149 0 0 0 34.55855,76.37378 772.94003,772.94178 0 0 1 105.98889,264.25602 772.94003,772.94178 0 0 1 105.99065,-264.25602 z M 681.61237,539.69132 a 54.66415,54.66415 0 0 0 -109.3283,0 54.663275,54.663275 0 0 0 109.32655,0 z"
     style="fill:#00b1ca;fill-opacity:1;fill-rule:evenodd;stroke:none;stroke-width:5.07278;stroke-dasharray:none;stroke-opacity:1"
     id="path5" /><path
     d="M 1016.2778,31.835513 A 113.2018,113.2018 0 0 0 910.79851,144.64681 v 18.08217 h -162.7255 a 36.082034,36.082034 0 0 0 -36.07854,36.07853 v 120.38844 a 36.082034,36.082034 0 0 0 36.07854,36.08553 h 551.85109 a 36.082034,36.082034 0 0 0 36.0785,-36.08553 V 198.80576 a 36.082034,36.082034 0 0 0 -36.0785,-36.07678 H 1137.1986 V 144.64681 A 113.2018,113.2018 0 0 0 1016.2778,31.835513 Z m 4.6896,68.584767 a 44.576765,44.576765 0 0 1 47.6062,44.22653 44.576765,44.576765 0 0 1 -89.15005,0 44.576765,44.576765 0 0 1 41.54385,-44.22653 z"
     style="fill:#00b1ca;fill-opacity:1;fill-rule:evenodd;stroke:none;stroke-width:4.60619;stroke-dasharray:none;stroke-opacity:1"
     id="path6" /><path
     id="path2"
     style="fill:#c2c2c2;fill-opacity:1;stroke:none;stroke-width:4.94988;stroke-dasharray:none;stroke-opacity:1"
     d="M 979.60742,521.22131 760.28711,708.73694 v 261.25591 l -174.59375,96.75005 v 466.3301 c -281.91786,52.5462 -459.23438,137.9844 -459.23438,137.9844 0,0 518.72478,-89.1953 891.13872,-89.1953 370.8037,0 912.2363,84.5527 912.2363,84.5527 0,0 -160.9222,-79.8143 -440.1797,-131.1816 V 1177.4226 L 1267.1387,1065.6785 V 720.98303 Z m 33.32618,77.36524 55.9805,35.89062 v 68.5918 l -55.9805,-34.26953 z m 90.2461,57.86914 51.1582,32.80664 v 66.0957 l -51.1582,-31.31445 z m -90.2461,44.68164 55.9805,33.21093 v 68.6543 l -55.9805,-30.90039 z m 174.2266,9.16797 46.8964,30.07617 v 63.78125 l -46.8964,-28.71485 z m -83.9805,44.375 51.1582,30.36328 v 65.11523 l -51.1582,-28.23633 z m 83.9805,49.83789 46.8964,27.82812 v 61.82419 l -46.8964,-25.88864 z m -174.2266,0.58007 55.9805,29.70313 v 68.47851 l -55.9805,-27.91015 z m 90.2461,47.88672 51.1582,27.1543 V 945.862 l -51.1582,-25.5079 z m 83.9805,44.56442 46.8964,24.8926 v 63.15045 l -46.8964,-23.37505 z m -174.2266,9.6036 55.9805,27.0078 v 70.2306 l -55.9805,-24.82235 z m -169.37696,23.1347 92.38281,44.77355 v 519.25785 c -31.44403,1.1073 -62.25499,2.8342 -92.38281,5.0957 z m 259.62306,20.4102 51.1582,24.68555 v 66.88485 l -51.1582,-22.6836 z m 83.9805,40.52737 46.8964,22.63093 v 63.7559 l -46.8964,-20.793 z m -383.95903,17.71683 v 73.3145 l -46.4375,20.4375 v -70.5684 z m 209.73243,4.0645 55.9805,24.1894 v 68.6094 l -55.9805,-21.8047 z m -285.33399,33.6816 v 68.8438 l -40.78906,17.9492 v -66.4356 z m 375.58009,5.3125 51.1582,22.0996 v 64.9786 l -51.1582,-19.9258 z m -443.80665,28.7403 v 64.8125 l -39.30664,17.3007 v -62.4921 z m 527.78715,7.5468 46.8964,20.2559 v 61.5898 l -46.8964,-18.2695 z m -383.95903,27.3301 v 74.1211 l -46.4375,16.9785 v -71.7734 z m 209.73243,0.9688 55.9805,20.6015 v 69.1133 l -55.9805,-18.0898 z m 276.0234,15.6797 43.625,18.8515 v 57.4024 l -43.625,-16.9961 z m -561.35739,14.8222 v 70.291 l -40.78906,14.9063 v -68.2266 z m 375.58009,2.7031 51.1582,18.8243 v 65.289 l -51.1582,-16.5254 z m 255.9082,12.7754 38.9707,16.8399 v 54.6133 l -38.9707,-15.1778 z m -699.71681,12.9141 v 66.8398 l -39.30468,14.3711 v -64.8554 z m 527.78911,5.2187 46.8964,17.2559 v 61.709 l -46.8964,-15.1504 z m 238.1015,10.461 34.7578,15.0097 v 51.9864 l -34.7597,-13.5371 z m -136.3047,26.9961 43.625,16.0527 v 57.2891 l -43.625,-14.0938 z m -276.0234,3.3203 55.9805,17.1348 v 69.6054 l -55.9805,-14.4219 z m -209.73243,1.5683 v 73.793 l -46.4375,13.1582 v -71.4277 z m 555.88673,20.9141 38.9707,14.3438 v 54.3515 l -38.9707,-12.582 z m -631.48829,4.3516 v 69.9531 l -40.78906,11.5527 v -67.873 z m 375.58009,0.7969 51.1582,15.6621 v 65.4629 l -51.1582,-13.1817 z m 322.0801,19.207 34.7597,12.7832 v 51.5879 l -34.7597,-11.2324 z m -765.88871,2.789 v 66.4883 l -39.30468,11.1367 v -64.4843 z m 527.78911,3.711 46.8964,14.3613 v 61.6055 l -46.8964,-12.0821 z m 101.7968,31.168 43.625,13.3554 v 56.8418 l -43.625,-11.2441 z m -276.0136,20.7578 55.9785,13.3828 v 153.2656 c -17.1716,-0.328 -34.5545,-0.498 -52.1465,-0.498 -1.2785,0 -2.5554,0 -3.832,0 z m 346.1445,0.7187 38.9707,11.9258 v 53.666 l -38.9707,-10.0449 z m -555.88673,4.1426 v 72.291 l -46.4375,9.6211 v -70.4785 z m 622.05863,16.1094 34.7597,10.6445 v 50.668 l -34.7597,-8.961 z m -322.0723,0.6015 51.1582,12.2305 v 135.8281 c -16.8248,-0.855 -33.8783,-1.5626 -51.1582,-2.1113 z m -375.58789,1.8965 v 69.3359 l -40.78906,8.4512 v -67.7422 z m -68.22852,16.8047 v 66.668 l -39.30468,8.1289 v -65.1231 z m 527.79691,1.3809 46.8965,11.2148 v 122.0117 c -15.4157,-1.2488 -31.0488,-2.3778 -46.8965,-3.3789 z m 238.1035,56.9257 34.7578,8.3125 v 96.3379 c -11.4031,-1.9538 -22.9896,-3.8574 -34.7578,-5.7031 z" /><text
     xml:space="preserve"
     style="font-style:normal;font-variant:normal;font-weight:normal;font-stretch:normal;font-size:266.667px;font-family:'MS UI Gothic';-inkscape-font-specification:'MS UI Gothic, Normal';font-variant-ligatures:normal;font-variant-caps:normal;font-variant-numeric:normal;font-variant-east-asian:normal;text-align:start;writing-mode:lr-tb;direction:ltr;white-space:pre;shape-inside:url(#b);display:inline;fill:#00b1ca;fill-opacity:1;fill-rule:evenodd;stroke:none;stroke-width:16.9617;stroke-dasharray:none;stroke-opacity:1"
     transform="matrix(1.5462261,0,0,1.3887111,262.23938,1943.062)"
     id="text7"><tspan
       x="0"
       y="0"
       id="tspan2"><tspan
         style="font-weight:600;font-size:261.585px;font-family:'Segoe UI';-inkscape-font-specification:'Segoe UI, Semi-Bold'"
         id="tspan1">Snap</tspan></tspan></text><text
     xml:space="preserve"
     style="font-style:normal;font-variant:normal;font-weight:400;font-stretch:normal;font-size:266.667px;font-family:Bahnschrift;-inkscape-font-specification:Bahnschrift;text-align:start;writing-mode:lr-tb;direction:ltr;white-space:pre;shape-inside:url(#c);display:inline;fill:#c2c2c2;fill-opacity:1;fill-rule:evenodd;stroke:none;stroke-width:30;stroke-opacity:1"
     transform="matrix(1.3292434,0,0,1.2834785,1184.1797,1943.281)"
     id="text9"><tspan
       x="0"
       y="0"
       id="tspan4"><tspan
         style="font-weight:300;font-size:282.129px;font-family:'Segoe UI';-inkscape-font-specification:'Segoe UI, Light'"
         id="tspan3">Doc</tspan></tspan></text></svg>
