<svg xmlns="http://www.w3.org/2000/svg" width="1024" height="1024"><path d="M4811.825 3412.536H941.594V-457.7h3870.231Z" style="fill:#11b2c9;stroke:none;stroke-width:6.34618;stroke-dasharray:none;stroke-opacity:1;fill-opacity:1" transform="matrix(.26458 0 0 .26458 -249.13 121.1)"/><path d="M3598.562 2475.135H2135.028c-76.876 0-139.196-62.32-139.196-139.196V754.608c0-76.875 62.32-139.195 139.195-139.195H3618.393c76.875 0 139.195 62.32 139.194 139.195V2335.94c0 76.875-62.319 139.195-139.194 139.195z" style="fill:#fff;fill-opacity:1;stroke:#696969;stroke-width:45.35433128;stroke-dasharray:none;stroke-opacity:1" transform="matrix(.26458 0 0 .26458 -249.13 121.1)"/><path d="M2866.073 307.53a155.963 155.963 0 0 0-145.325 155.426v24.913h-224.196a49.713 49.713 0 0 0-49.706 49.706v165.866a49.713 49.713 0 0 0 49.706 49.717h760.314a49.713 49.713 0 0 0 49.707-49.717V537.575a49.713 49.713 0 0 0-49.707-49.706h-224.195v-24.913a155.963 155.963 0 0 0-166.598-155.426Zm6.46 94.493a61.415 61.415 0 0 1 65.59 60.933 61.415 61.415 0 0 1-122.827 0 61.415 61.415 0 0 1 57.237-60.933z" style="fill:#696969;fill-opacity:1;fill-rule:evenodd;stroke:none;stroke-width:6.34618;stroke-dasharray:none;stroke-opacity:1" transform="matrix(.26458 0 0 .26458 -249.13 121.1)"/><path d="M2972.69 908.423h616.373a14.914 14.914 0 0 1 14.914 14.913v29.381a14.914 14.914 0 0 1-14.913 14.914H2972.69a14.914 14.914 0 0 1-14.914-14.914v-29.381a14.914 14.914 0 0 1 14.914-14.913zM3151.656 1132.129h437.408a14.914 14.914 0 0 1 14.913 14.914v29.381a14.914 14.914 0 0 1-14.913 14.915h-437.408a14.914 14.914 0 0 1-14.915-14.915v-29.381a14.914 14.914 0 0 1 14.915-14.914zM3330.62 1355.836h258.443a14.914 14.914 0 0 1 14.914 14.914v29.382a14.914 14.914 0 0 1-14.914 14.914H3330.62a14.914 14.914 0 0 1-14.912-14.914v-29.382a14.914 14.914 0 0 1 14.912-14.914z" style="fill:#11b2c9;fill-opacity:1;stroke:none;stroke-width:6.34618;stroke-dasharray:none;stroke-opacity:1" transform="matrix(.26458 0 0 .26458 -249.13 121.1)"/><path d="m2811.6 1166.487-285.828 236.506v329.511l-227.541 122.03v602.255a5202.508 5202.516 0 0 1 336.059-27.395v-746.967l120.4 56.472v685.992a5202.508 5202.516 0 0 1 100.353-1.618V2182.46L2928 2199.34v224.152a5202.508 5202.516 0 0 1 44.655.787V2209.67l66.673 15.425v201a5202.508 5202.516 0 0 1 42.775 1.617v-192.713l61.118 14.145v181.487a5202.508 5202.516 0 0 1 249.186 19.37v-143.204l45.3 10.484v137.541a5202.508 5202.516 0 0 1 38.61 4.428V1994.13l-289.993-140.94v-434.751Zm43.432 97.576 72.957 45.268v86.512l-72.957-43.223zm117.613 72.99 66.672 41.376v83.365l-66.672-39.496zm-117.613 56.353 72.957 41.89v86.589l-72.957-38.971zm227.06 11.565 61.119 37.933v80.446l-61.12-36.217zm-109.447 55.97 66.672 38.294v82.129l-66.672-35.615zm109.447 62.857 61.119 35.101v77.975l-61.12-32.652zm-227.06.732 72.957 37.463v86.37l-72.957-35.2zm117.613 60.397 66.672 34.25v82.894l-66.672-32.172zm109.447 56.21 61.119 31.396v79.648l-61.12-29.482zm-227.06 12.113 72.957 34.063v88.579l-72.957-31.308zm117.613 54.92 66.672 31.134v84.359l-66.672-28.608zm109.447 51.117 61.119 28.542v80.413l-61.12-26.225zm-500.394 22.344v92.47l-60.517 25.777v-89.005zm273.334 5.127 72.957 30.51v86.534l-72.957-27.503zm-371.86 42.48v86.83l-53.16 22.64v-83.792zm489.473 6.701 66.672 27.876v81.954l-66.672-25.132zm-578.39 36.25v81.746l-51.226 21.82v-78.817zm687.837 9.52 61.119 25.548v77.68l-61.12-23.044zm-500.394 34.468v93.487l-60.517 21.415v-90.524zm273.334 1.224 72.957 25.985v87.169l-72.957-22.815zm359.726 19.776 56.855 23.776v72.4l-56.855-21.437zm-731.586 18.693v88.655l-53.16 18.803v-86.054zm489.473 3.41 66.672 23.744v82.348l-66.672-20.847zm333.512 16.114 50.788 21.24v68.88l-50.788-19.141zm-911.903 16.288v84.304l-51.225 18.125v-81.801zm687.838 6.58 61.119 21.765v77.833l-61.12-19.108zm310.304 13.195 45.3 18.934v65.567l-45.3-17.075zm-177.638 34.052 56.855 20.245v72.258l-56.855-17.775zm-359.726 4.187 72.957 21.612v87.791l-72.957-18.19zm-273.334 1.978v93.072l-60.517 16.594v-90.087zm724.459 26.378 50.788 18.092v68.552l-50.788-15.872zm-822.985 5.488v88.23l-53.16 14.57v-85.605zm489.473 1.006 66.672 19.753v82.567l-66.672-16.627zm419.751 24.224 45.3 16.124v65.065l-45.3-14.167zm-998.142 3.52v83.857l-51.225 14.047v-81.331zm687.838 4.679 61.119 18.114v77.701l-61.12-15.238zm132.666 39.31 56.855 16.846v71.69l-56.855-14.18zm91.399 27.088 50.788 15.042v67.689l-50.788-12.67zm-724.459 5.226v91.18l-60.517 12.135v-88.896zm810.698 20.322 45.3 13.424v63.906l-45.3-11.303zm-909.224 3.148v87.453l-53.16 10.658v-85.441zm-88.918 21.196v84.086l-51.225 10.254v-82.14z" style="fill:#909090;fill-opacity:1;stroke:none;stroke-width:6.34618;stroke-dasharray:none;stroke-opacity:1" transform="matrix(.26458 0 0 .26458 -249.13 121.1)"/><path d="M2876.708 2423.121a5202.499 5202.499 0 0 1 1085.844 117.155 2344.479 2344.479 0 0 1 545.362 190.754 944.48 944.48 0 0 1 168.807 114.513 520.826 520.826 0 0 1 85.926 96.468 285.358 285.358 0 0 1 38.082 84.935 355.134 355.134 0 0 1 11.101 77.351v308.239H941.597v-308.239a355.136 355.136 0 0 1 11.102-77.35 285.358 285.358 0 0 1 38.082-84.936 520.827 520.827 0 0 1 85.925-96.467 944.475 944.475 0 0 1 168.808-114.514 2344.475 2344.475 0 0 1 545.36-190.754 5202.499 5202.499 0 0 1 1085.844-117.155z" style="fill:#b7b7b7;fill-opacity:1;stroke:none;stroke-width:6.34618;stroke-dasharray:none;stroke-opacity:1" transform="matrix(.26458 0 0 .26458 -249.13 121.1)"/><path d="M2475.7 1237.7a462.211 462.212 0 0 0 47.611-105.224 204.516 204.516 0 1 0-387.279 0 462.211 462.212 0 0 0 47.613 105.224 1064.92 1064.923 0 0 1 146.027 364.08 1064.92 1064.923 0 0 1 146.027-364.08zm-70.716-171.03a75.313 75.313 0 0 0-150.625 0 75.313 75.313 0 0 0 150.625 0z" style="fill:#11b2c9;fill-opacity:1;fill-rule:evenodd;stroke:none;stroke-width:6.98904;stroke-dasharray:none;stroke-opacity:1" transform="matrix(.26458 0 0 .26458 -249.13 121.1)"/><path d="m2981.892 3412.53 1311.93.01-817.538-953.357s-256.435-36.637-587.985-36.047c-362.172.644-590.067 33.594-590.067 33.594z" style="fill:#696969;fill-opacity:1;fill-rule:evenodd;stroke:none;stroke-width:.884409;stroke-dasharray:none" transform="matrix(.26458 0 0 .26458 -249.13 121.1)"/><path d="m2526.664 1423.084 261.014-179.16v326.013l-260.133 119.953z" style="fill:#fff;fill-rule:evenodd;stroke-width:48.3981;fill-opacity:1" transform="matrix(.23235 0 0 .26458 -160.474 121.1)"/><path d="m2525.84 1557.467-.029-134.757 118.539-81.654 144.875-99.796.011 164.71.011 164.68-144.855 66.853-118.525 54.701zm159.216 25.484c4.945-2.862 9.812-7.469 13.05-12.372 1.032-1.561 2.182-3.72 2.986-5.601 1.284-3.006 1.92-5.81 2.113-9.327.08-1.46.09-3.602.087-21.745v-18.918l-2.722 1.447-2.712 1.44-.011 3.663-.012 3.662-.176-.203c-1.758-2.024-4.558-2.908-7.86-2.489-3.181.403-6.888 2.06-10.27 4.585-3.24 2.417-6.16 5.654-8.775 9.716-.882 1.37-1.743 2.865-2.68 4.654-.761 1.452-1.034 2.077-1.572 3.598a38.085 38.085 0 0 0-2.056 9.64c-.048.607-.047 3.123 0 3.69.199 2.328.573 4.007 1.249 5.604 1.21 2.861 3.316 4.917 6.004 5.852 2.86.996 6.313.838 9.8-.455 3.615-1.34 7.662-4.212 10.856-7.712a29.592 29.592 0 0 0 4.347-6.148 35.34 35.34 0 0 0 1.018-2.19c.087-.217.12-.275.128-.23.024.118-.023 3.937-.054 4.408-.102 1.555-.272 2.677-.603 3.965-.725 2.816-2.02 5.51-3.871 8.058-1.797 2.473-4.085 4.693-6.532 6.341-.97.654-1.253.815-2.538 1.449-1.226.604-1.508.726-2.326.997-4.7 1.558-8.341.245-10.882-3.9l-.141-.23-2.63 1.315c-1.443.721-2.62 1.323-2.62 1.334 0 .092.286 1.11.424 1.51.974 2.83 2.699 4.934 5.052 6.16 2.02 1.05 4.47 1.403 7.04 1.006 1.474-.227 2.889-.649 4.503-1.344.41-.177 1.84-.912 2.378-1.224zm-2.307-20.012c-.073.024-.296.121-.497.204-3.114 1.273-6.046 1.219-8.25-.145-1.073-.664-1.906-1.55-2.593-2.753a9.334 9.334 0 0 1-.79-1.76c-1.032-2.974-1.08-6.743-.132-10.512.678-2.695 1.774-5.284 3.324-7.85 1.418-2.348 2.979-4.297 4.838-6.042 2.026-1.902 4.184-3.281 6.551-4.184 3.992-1.522 7.49-1.123 9.809 1.133 1.788 1.74 2.79 4.653 2.79 8.117 0 4.072-1.729 9.548-4.395 13.942-1.149 1.893-2.185 3.28-3.496 4.682-1.498 1.6-2.954 2.787-4.874 3.972-.306.19-2.032 1.094-2.285 1.197zm-68.41 40.095c4.015-2.273 7.921-6.224 11.064-11.204 2.118-3.356 3.737-7.027 4.664-10.582l.135-.517-2.655 1.356-2.643 1.35-.155.463c-1.99 5.958-6.683 11.646-11.651 14.152-2.57 1.296-5.157 1.517-7.368.632-2.649-1.06-4.386-3.612-4.724-6.929-.023-.217-.04-.413-.04-.434 0-.03 2.967-1.564 14.89-7.693l15.245-7.838-.017-.535c-.052-1.555-.111-2.586-.208-3.577-.345-3.524-1.16-6-2.611-7.938a8.57 8.57 0 0 0-2.37-2.216c-1.405-.909-2.886-1.401-4.61-1.533-3.46-.264-7.331 1.13-11.192 4.017-1.673 1.251-3.2 2.674-4.718 4.392a34.986 34.986 0 0 0-2.514 3.186c-5.038 7.168-7.53 15.901-6.607 23.101.356 2.782 1.292 5.234 2.678 7.012 2.943 3.775 7.812 4.665 13.238 2.386.83-.348 1.504-.675 2.17-1.053zm-13.323-17.217c0-.085.228-1.224.332-1.66.602-2.512 1.67-5.115 3.075-7.483 2.134-3.597 4.842-6.484 7.937-8.451.523-.333 1.713-.952 2.21-1.15 1.393-.557 2.585-.814 3.816-.824 3.388-.027 6.063 2.029 7.196 5.545.104.324.242.828.299 1.094l.017.078-12.563 6.512c-10.942 5.672-12.319 6.385-12.319 6.339zm128.332-40.275c4.838-2.91 9.466-7.622 13.083-13.34 2.215-3.501 3.843-7.047 4.894-10.663.108-.372.196-.684.196-.694 0-.014-1.412.704-3.134 1.583l-3.12 1.593-.205.569c-1.062 2.948-2.813 5.957-5.046 8.67-3.406 4.142-7.733 7.287-11.452 8.34-4.958 1.402-9.415-.492-11.078-4.68-.354-.894-.548-1.736-.676-2.942l-.019-.183 17.683-9.09 18.144-9.328-.018-.309a26.883 26.883 0 0 1-.034-.903c-.135-4.532-.792-7.67-2.104-10.055-.698-1.268-1.83-2.577-2.903-3.354-.395-.287-1.511-.92-1.975-1.12-2.922-1.262-6.304-1.324-9.968-.192-3.017.932-6.271 2.751-9.311 5.2-7.126 5.742-12.62 14.569-14.533 23.287a33.252 33.252 0 0 0-.675 4.648c-.052.673-.05 2.997 0 3.608.06.716.15 1.453.251 2.044 1.032 6.092 4.691 9.932 10.05 10.508 2.107.227 4.46-.073 6.897-.881.824-.273 1.345-.477 2.507-.981.41-.178 2.061-1.044 2.547-1.337zm-16.492-17.695c0-.094.247-1.233.376-1.73.567-2.188 1.436-4.35 2.66-6.61.354-.655 1.444-2.415 1.887-3.046 1.686-2.405 3.5-4.42 5.532-6.145 3.259-2.765 6.573-4.354 9.753-4.668.98-.097 2.292-.01 3.2.214 1.315.323 2.585.992 3.52 1.855 1.007.929 1.775 2.105 2.297 3.517.146.395.38 1.176.38 1.268 0 .034-3.039 1.618-14.96 7.798-12.037 6.24-14.645 7.578-14.645 7.547zm-73.16 50.062c0-11.906.01-13.248.093-14.388.169-2.237.597-4.017 1.41-5.858.525-1.19 1.376-2.6 2.238-3.709 2.01-2.584 4.63-4.547 7.062-5.286 3.464-1.053 6.33.516 7.193 3.951.22.874.367 2.24.367 3.393v.379l2.711-1.405 2.722-1.41v-.559c0-1.114-.1-2.728-.231-3.72-.316-2.409-.915-4.045-1.904-5.205-.6-.703-1.745-1.563-2.57-1.93-1.82-.81-4.033-.842-6.531-.099-1.793.533-3.859 1.516-5.426 2.58-3.065 2.082-5.607 5.157-7.169 8.663l-.216.485v-4.46l-2.434 1.293-2.423 1.288v40.5l2.546-1.273 2.557-1.278zm119.848-61.546c0-13.606 0-14.22.114-15.457.346-3.858 1.723-7.15 4.34-10.365 2.533-3.112 5.973-5.525 9.021-6.32 1.477-.385 2.986-.392 4.195-.019a6.01 6.01 0 0 1 2.017 1.14c1.424 1.264 2.116 3.163 2.202 6.048.013.333.027.704.036.82l.019.211 3.24-1.68 3.255-1.686v-.15c0-.515-.077-2.309-.12-2.867-.275-3.501-1.025-5.734-2.413-7.179-.73-.76-1.944-1.56-2.99-1.971-2.532-.993-5.83-.723-9.555.773-2.075.833-4.117 1.95-5.723 3.128-3.288 2.412-6.004 5.684-7.707 9.276l-.259.546v-4.894l-2.902 1.54-2.89 1.536v44.22l3.053-1.526 3.066-1.532zm-182.249 104.239c2.252-1.214 3.65-2.075 5.033-3.1 2.348-1.74 4.499-3.923 6.081-6.175a28.484 28.484 0 0 0 2.816-5.055c1.054-2.465 1.684-4.883 1.89-7.247.051-.603.057-1.987.01-2.579-.247-3.105-1.204-5.266-2.932-6.627-.96-.756-2.2-1.21-3.609-1.322a8.436 8.436 0 0 0-.92-.035h-.117l.363-.503c2.53-3.513 4.046-6.944 4.5-10.199.122-.869.152-1.319.153-2.25 0-.923-.022-1.268-.128-1.98-.17-1.145-.468-2.078-.962-3.016-1.11-2.109-3.005-3.355-5.358-3.53-1.892-.141-4.058.382-6.767 1.63-1.099.506-1.655.8-7.84 4.14l-6.349 3.426v51.551l6.618-3.326c3.829-1.927 7.039-3.55 7.509-3.803zm-6.023-2.1-3.06 1.532V1600.609l4.254-2.2c4.294-2.222 4.47-2.31 5.636-2.804 2.494-1.056 4.512-1.472 5.934-1.219.651.116 1.148.32 1.686.693.956.662 1.59 1.686 1.912 3.084.244 1.06.303 2.468.153 3.613-.297 2.255-1.39 4.937-2.945 7.235-1.938 2.862-4.91 5.176-9.663 7.533-.456.23-2.214 1.105-3.904 1.954zm-3.066-31.464v-8.327l3.256-1.775c1.799-.98 3.558-1.935 3.905-2.119 4.537-2.402 7.227-2.512 8.918-.348.253.324.576.915.725 1.326.396 1.093.451 2.416.164 3.93-.281 1.488-.846 2.995-1.669 4.452a14.103 14.103 0 0 1-1.755 2.499c-1.375 1.58-2.952 2.868-5.116 4.179-.801.484-2.268 1.279-5.304 2.872l-3.121 1.637zm103.529-79.112c4.3-2.687 8.264-6.704 11.518-11.69a60.456 60.456 0 0 0 1.709-2.855 48.009 48.009 0 0 0 3.653-8.455c0-.013-1.396.765-3.098 1.719l-3.084 1.725-.243.525a44.567 44.567 0 0 1-2.872 5.183c-2.696 4.118-5.869 7.085-9.795 9.173a25.06 25.06 0 0 1-1.247.62c-3.207 1.38-6.05 1.454-8.272.224-1.718-.952-2.93-2.592-3.6-4.868-.64-2.177-.72-4.987-.221-7.77.365-2.037 1.022-4.14 1.958-6.259a33.914 33.914 0 0 1 3.012-5.347c1.837-2.654 4.068-5.027 6.419-6.825 2.448-1.874 4.684-2.987 6.908-3.436 2.994-.604 5.665.126 7.38 2.024.14.155.322.371.407.481l.153.2 3.104-1.774c1.713-.98 3.118-1.796 3.118-1.809 0-.118-.468-1.084-.784-1.618-2.47-4.173-7.187-5.598-12.812-3.903-2.27.684-4.666 1.885-7.018 3.518-3.595 2.496-7.074 6.047-9.923 10.122a49.554 49.554 0 0 0-2.864 4.647c-3.481 6.468-5.12 13.157-4.6 18.75.398 4.275 1.98 7.512 4.604 9.412.621.45 1.505.918 2.231 1.182 3.328 1.207 7.445.664 11.947-1.592a34.53 34.53 0 0 0 2.312-1.305zm86.596-58.039-.001-9.742 8.782-4.95 8.893-5.011v-6.88l-8.893 5.054-8.783 4.992v-9.205l-.001-9.205-3.142 1.827-3.128 1.819v9.164l.001 9.164-8.599 4.888-8.494 4.828v6.683l8.495-4.788 8.599-4.846v9.7l.002 9.698 3.128-1.72 3.141-1.728zm-168.544 99.578v-2.627l-10.887 6.034-10.7 5.93V1540.488l10.364-5.898 10.54-5.998-.001-2.641v-2.641l-10.54 6.043-10.363 5.942v-17.862l10.699-6.29 10.887-6.401v-5.316l-13.46 7.97-13.171 7.8v51.542l13.171-7.245 13.459-7.402zm10.035-14.883c0-7.748.01-12.217.024-12.633.107-2.616.476-4.469 1.293-6.498.336-.832 1.062-2.188 1.621-3.028 1.426-2.14 3.1-3.841 5.011-5.088 1.673-1.092 3.386-1.577 4.894-1.384a4.563 4.563 0 0 1 3.315 2.11c.565.907.868 1.974 1.03 3.617.04.421.044 1.464.054 12.931l.013 12.472 2.518-1.384 2.527-1.39v-12.34c0-7.957.01-12.551.025-12.935.098-2.152.365-3.751.882-5.268.355-1.042.674-1.725 1.384-2.962.801-1.395 1.607-2.517 2.601-3.622 1.635-1.815 3.38-3.115 5.155-3.838 2.318-.944 4.271-.74 5.81.61.787.692 1.284 1.603 1.6 2.937.166.698.25 1.284.361 2.53.024.27.035 3.497.043 12.71l.013 12.347 2.61-1.436 2.62-1.441-.012-12.508c-.012-8.89-.021-12.655-.045-13.016-.194-3.128-.565-4.775-1.401-6.219-.504-.87-1.08-1.441-1.966-1.951-2.757-1.588-5.744-1.852-8.672-.775-1.522.56-3.18 1.557-4.837 2.91-3.105 2.532-5.973 6.1-7.73 9.612-.356.712-.46.956-.728 1.715l-.213.604-.323-.384a4.92 4.92 0 0 0-.499-.521c-2.854-2.249-6.696-2.03-11.025.607-.684.416-1.287.835-1.848 1.283-2.633 2.1-4.762 4.935-6.132 8.16l-.23.542v-4.385l-2.312 1.344-2.304 1.34v39.293l2.432-1.338 2.44-1.342zm99.866-55.428c.01-12.764.012-12.86.125-14.255.237-2.89.9-5.273 2.08-7.46 1.682-3.124 4.231-6.182 6.88-8.25 1.332-1.04 2.771-1.87 4.212-2.432 2.667-1.035 5.05-1.004 6.784.092 1.471.931 2.372 2.763 2.713 5.522.179 1.445.169.68.181 14.202l.014 12.422 2.967-1.632 2.98-1.639v-12.075c0-12.074-.014-12.886-.113-14.235-.314-4.037-1.361-6.7-3.3-8.399-2.919-2.556-7.29-2.71-12.254-.452a25.343 25.343 0 0 0-3.523 2.013c-2.464 1.727-4.706 3.93-6.596 6.48a27.428 27.428 0 0 0-1.628 2.48c-.6 1.015-.912 1.605-1.307 2.47l-.223.492v-20.153l-2.858 1.692-2.846 1.686v57.057l2.844-1.564 2.856-1.571z" style="fill:#000;stroke-width:.167069" transform="matrix(.23235 0 0 .26458 -160.474 121.1)"/></svg>