<?xml version="1.0" encoding="UTF-8" standalone="no"?>
<svg
   width="1024"
   height="1024"
   version="1.1"
   id="svg10"
   sodipodi:docname="appicon.svg"
   inkscape:version="1.4.2 (f4327f4, 2025-05-13)"
   inkscape:export-filename="appicon.png"
   inkscape:export-xdpi="96"
   inkscape:export-ydpi="96"
   xmlns:inkscape="http://www.inkscape.org/namespaces/inkscape"
   xmlns:sodipodi="http://sodipodi.sourceforge.net/DTD/sodipodi-0.dtd"
   xmlns="http://www.w3.org/2000/svg"
   xmlns:svg="http://www.w3.org/2000/svg">
  <defs
     id="defs10" />
  <sodipodi:namedview
     id="namedview10"
     pagecolor="#ffffff"
     bordercolor="#000000"
     borderopacity="0.25"
     inkscape:showpageshadow="2"
     inkscape:pageopacity="0.0"
     inkscape:pagecheckerboard="0"
     inkscape:deskcolor="#d1d1d1"
     inkscape:zoom="0.55726091"
     inkscape:cx="196.49683"
     inkscape:cy="311.34429"
     inkscape:window-width="1920"
     inkscape:window-height="1009"
     inkscape:window-x="-8"
     inkscape:window-y="-8"
     inkscape:window-maximized="1"
     inkscape:current-layer="svg10" />
  <path
     d="M4811.825 3412.536H941.594V-457.7h3870.231Z"
     style="fill:#11b2c9;stroke:none;stroke-width:6.34618;stroke-dasharray:none;stroke-opacity:1;fill-opacity:1"
     transform="matrix(.26458 0 0 .26458 -249.13 121.1)"
     id="path1" />
  <path
     d="M3598.562 2475.135H2135.028c-76.876 0-139.196-62.32-139.196-139.196V754.608c0-76.875 62.32-139.195 139.195-139.195H3618.393c76.875 0 139.195 62.32 139.194 139.195V2335.94c0 76.875-62.319 139.195-139.194 139.195z"
     style="fill:#fff;fill-opacity:1;stroke:#696969;stroke-width:45.35433128;stroke-dasharray:none;stroke-opacity:1"
     transform="matrix(.26458 0 0 .26458 -249.13 121.1)"
     id="path2" />
  <path
     d="M2866.073 307.53a155.963 155.963 0 0 0-145.325 155.426v24.913h-224.196a49.713 49.713 0 0 0-49.706 49.706v165.866a49.713 49.713 0 0 0 49.706 49.717h760.314a49.713 49.713 0 0 0 49.707-49.717V537.575a49.713 49.713 0 0 0-49.707-49.706h-224.195v-24.913a155.963 155.963 0 0 0-166.598-155.426Zm6.46 94.493a61.415 61.415 0 0 1 65.59 60.933 61.415 61.415 0 0 1-122.827 0 61.415 61.415 0 0 1 57.237-60.933z"
     style="fill:#696969;fill-opacity:1;fill-rule:evenodd;stroke:none;stroke-width:6.34618;stroke-dasharray:none;stroke-opacity:1"
     transform="matrix(.26458 0 0 .26458 -249.13 121.1)"
     id="path3" />
  <path
     d="M2972.69 908.423h616.373a14.914 14.914 0 0 1 14.914 14.913v29.381a14.914 14.914 0 0 1-14.913 14.914H2972.69a14.914 14.914 0 0 1-14.914-14.914v-29.381a14.914 14.914 0 0 1 14.914-14.913zM3151.656 1132.129h437.408a14.914 14.914 0 0 1 14.913 14.914v29.381a14.914 14.914 0 0 1-14.913 14.915h-437.408a14.914 14.914 0 0 1-14.915-14.915v-29.381a14.914 14.914 0 0 1 14.915-14.914zM3330.62 1355.836h258.443a14.914 14.914 0 0 1 14.914 14.914v29.382a14.914 14.914 0 0 1-14.914 14.914H3330.62a14.914 14.914 0 0 1-14.912-14.914v-29.382a14.914 14.914 0 0 1 14.912-14.914z"
     style="fill:#11b2c9;fill-opacity:1;stroke:none;stroke-width:6.34618;stroke-dasharray:none;stroke-opacity:1"
     transform="matrix(.26458 0 0 .26458 -249.13 121.1)"
     id="path4" />
  <path
     d="m2811.6 1166.487-285.828 236.506v329.511l-227.541 122.03v602.255a5202.508 5202.516 0 0 1 336.059-27.395v-746.967l120.4 56.472v685.992a5202.508 5202.516 0 0 1 100.353-1.618V2182.46L2928 2199.34v224.152a5202.508 5202.516 0 0 1 44.655.787V2209.67l66.673 15.425v201a5202.508 5202.516 0 0 1 42.775 1.617v-192.713l61.118 14.145v181.487a5202.508 5202.516 0 0 1 249.186 19.37v-143.204l45.3 10.484v137.541a5202.508 5202.516 0 0 1 38.61 4.428V1994.13l-289.993-140.94v-434.751Zm43.432 97.576 72.957 45.268v86.512l-72.957-43.223zm117.613 72.99 66.672 41.376v83.365l-66.672-39.496zm-117.613 56.353 72.957 41.89v86.589l-72.957-38.971zm227.06 11.565 61.119 37.933v80.446l-61.12-36.217zm-109.447 55.97 66.672 38.294v82.129l-66.672-35.615zm109.447 62.857 61.119 35.101v77.975l-61.12-32.652zm-227.06.732 72.957 37.463v86.37l-72.957-35.2zm117.613 60.397 66.672 34.25v82.894l-66.672-32.172zm109.447 56.21 61.119 31.396v79.648l-61.12-29.482zm-227.06 12.113 72.957 34.063v88.579l-72.957-31.308zm117.613 54.92 66.672 31.134v84.359l-66.672-28.608zm109.447 51.117 61.119 28.542v80.413l-61.12-26.225zm-500.394 22.344v92.47l-60.517 25.777v-89.005zm273.334 5.127 72.957 30.51v86.534l-72.957-27.503zm-371.86 42.48v86.83l-53.16 22.64v-83.792zm489.473 6.701 66.672 27.876v81.954l-66.672-25.132zm-578.39 36.25v81.746l-51.226 21.82v-78.817zm687.837 9.52 61.119 25.548v77.68l-61.12-23.044zm-500.394 34.468v93.487l-60.517 21.415v-90.524zm273.334 1.224 72.957 25.985v87.169l-72.957-22.815zm359.726 19.776 56.855 23.776v72.4l-56.855-21.437zm-731.586 18.693v88.655l-53.16 18.803v-86.054zm489.473 3.41 66.672 23.744v82.348l-66.672-20.847zm333.512 16.114 50.788 21.24v68.88l-50.788-19.141zm-911.903 16.288v84.304l-51.225 18.125v-81.801zm687.838 6.58 61.119 21.765v77.833l-61.12-19.108zm310.304 13.195 45.3 18.934v65.567l-45.3-17.075zm-177.638 34.052 56.855 20.245v72.258l-56.855-17.775zm-359.726 4.187 72.957 21.612v87.791l-72.957-18.19zm-273.334 1.978v93.072l-60.517 16.594v-90.087zm724.459 26.378 50.788 18.092v68.552l-50.788-15.872zm-822.985 5.488v88.23l-53.16 14.57v-85.605zm489.473 1.006 66.672 19.753v82.567l-66.672-16.627zm419.751 24.224 45.3 16.124v65.065l-45.3-14.167zm-998.142 3.52v83.857l-51.225 14.047v-81.331zm687.838 4.679 61.119 18.114v77.701l-61.12-15.238zm132.666 39.31 56.855 16.846v71.69l-56.855-14.18zm91.399 27.088 50.788 15.042v67.689l-50.788-12.67zm-724.459 5.226v91.18l-60.517 12.135v-88.896zm810.698 20.322 45.3 13.424v63.906l-45.3-11.303zm-909.224 3.148v87.453l-53.16 10.658v-85.441zm-88.918 21.196v84.086l-51.225 10.254v-82.14z"
     style="fill:#909090;fill-opacity:1;stroke:none;stroke-width:6.34618;stroke-dasharray:none;stroke-opacity:1"
     transform="matrix(.26458 0 0 .26458 -249.13 121.1)"
     id="path5" />
  <path
     d="M2876.708 2423.121a5202.499 5202.499 0 0 1 1085.844 117.155 2344.479 2344.479 0 0 1 545.362 190.754 944.48 944.48 0 0 1 168.807 114.513 520.826 520.826 0 0 1 85.926 96.468 285.358 285.358 0 0 1 38.082 84.935 355.134 355.134 0 0 1 11.101 77.351v308.239H941.597v-308.239a355.136 355.136 0 0 1 11.102-77.35 285.358 285.358 0 0 1 38.082-84.936 520.827 520.827 0 0 1 85.925-96.467 944.475 944.475 0 0 1 168.808-114.514 2344.475 2344.475 0 0 1 545.36-190.754 5202.499 5202.499 0 0 1 1085.844-117.155z"
     style="fill:#b7b7b7;fill-opacity:1;stroke:none;stroke-width:6.34618;stroke-dasharray:none;stroke-opacity:1"
     transform="matrix(.26458 0 0 .26458 -249.13 121.1)"
     id="path6" />
  <path
     d="M2475.7 1237.7a462.211 462.212 0 0 0 47.611-105.224 204.516 204.516 0 1 0-387.279 0 462.211 462.212 0 0 0 47.613 105.224 1064.92 1064.923 0 0 1 146.027 364.08 1064.92 1064.923 0 0 1 146.027-364.08zm-70.716-171.03a75.313 75.313 0 0 0-150.625 0 75.313 75.313 0 0 0 150.625 0z"
     style="fill:#11b2c9;fill-opacity:1;fill-rule:evenodd;stroke:none;stroke-width:6.98904;stroke-dasharray:none;stroke-opacity:1"
     transform="matrix(.26458 0 0 .26458 -249.13 121.1)"
     id="path7" />
  <path
     d="m 2948.3208,3412.53 1582.8979,0.01 -1054.9347,-953.357 c 0,0 -256.435,-36.637 -587.985,-36.047 -362.172,0.644 -590.067,33.594 -590.067,33.594 z"
     style="fill:#696969;fill-opacity:1;fill-rule:evenodd;stroke:none;stroke-width:0.884409;stroke-dasharray:none"
     transform="matrix(0.26458,0,0,0.26458,-249.13,121.1)"
     id="path8"
     sodipodi:nodetypes="cccscc" />
</svg>
