<?xml version="1.0" encoding="UTF-8" standalone="no"?>
<svg
   width="1024"
   height="1024"
   version="1.1"
   id="svg10"
   sodipodi:docname="appicon_win.svg"
   inkscape:version="1.4.2 (f4327f4, 2025-05-13)"
   inkscape:export-filename="appicon.png"
   inkscape:export-xdpi="96"
   inkscape:export-ydpi="96"
   xmlns:inkscape="http://www.inkscape.org/namespaces/inkscape"
   xmlns:sodipodi="http://sodipodi.sourceforge.net/DTD/sodipodi-0.dtd"
   xmlns="http://www.w3.org/2000/svg"
   xmlns:svg="http://www.w3.org/2000/svg">
  <defs
     id="defs10" />
  <sodipodi:namedview
     id="namedview10"
     pagecolor="#ffffff"
     bordercolor="#000000"
     borderopacity="0.25"
     inkscape:showpageshadow="2"
     inkscape:pageopacity="0.0"
     inkscape:pagecheckerboard="0"
     inkscape:deskcolor="#d1d1d1"
     inkscape:zoom="0.78808594"
     inkscape:cx="599.5539"
     inkscape:cy="647.772"
     inkscape:window-width="1920"
     inkscape:window-height="1111"
     inkscape:window-x="-9"
     inkscape:window-y="-9"
     inkscape:window-maximized="1"
     inkscape:current-layer="svg10" />
  <path
     d="M 811.19815,958.32192 H 204.58302 c -31.86406,0 -57.69487,-25.83089 -57.69487,-57.69492 V 659.01355 245.18664 c 0,-31.86366 25.83081,-57.69445 57.69446,-57.69445 h 614.83514 c 31.8637,0 57.6945,25.83079 57.6941,57.69445 V 900.6274 c 0,31.86362 -25.8304,57.69452 -57.6941,57.69452 z"
     style="fill:#ffffff;fill-opacity:1;stroke:none;stroke-width:30;stroke-dasharray:none;stroke-opacity:1"
     id="path2-9"
     sodipodi:nodetypes="csscssscssc" />
  <path
     d="M 492.79886,373.57539 367.55409,480.65738 v 149.19155 l -99.70445,55.2511 V 957.78087 A 2279.6471,2355.5251 0 0 1 415.10475,945.37739 V 607.17575 l 52.75715,25.56863 v 310.59413 a 2279.6471,2355.5251 0 0 1 43.97292,-0.73253 V 833.57394 l 31.96847,7.64271 v 101.48851 a 2279.6471,2355.5251 0 0 1 19.56702,0.35633 v -97.16777 l 29.21493,6.98392 v 91.00607 a 2279.6471,2355.5251 0 0 1 18.74325,0.73209 v -87.25395 l 26.78082,6.40438 v 82.17121 a 2279.6471,2355.5251 0 0 1 109.18891,8.77009 v -64.83796 l 19.84966,4.7468 v 62.27401 a 2279.6471,2355.5251 0 0 1 16.91822,2.0048 V 748.30443 L 656.9963,684.49152 V 487.65083 Z m 19.03114,44.17915 31.96845,20.49582 v 39.16974 l -31.96846,-19.56991 z m 51.53594,33.04742 29.21447,18.73366 v 37.74489 l -29.21447,-17.88246 z m -51.53595,25.51475 31.96846,18.96639 v 39.20461 l -31.96846,-17.64477 z m 99.49367,5.23624 26.78127,17.1748 v 36.42326 l -26.7817,-16.39784 z m -47.95772,25.34136 29.21447,17.33824 v 37.18525 l -29.21447,-16.12527 z m 47.95772,28.45954 26.78127,15.89255 v 35.30447 l -26.7817,-14.78373 z m -99.49367,0.33142 31.96846,16.962 v 39.10543 l -31.96846,-15.93737 z m 51.53595,27.34574 29.21447,15.50726 v 37.53163 l -29.21447,-14.56641 z m 47.95772,25.45001 26.78127,14.21505 v 36.06196 l -26.7817,-13.34847 z m -99.49367,5.48436 31.96846,15.42259 v 40.10561 l -31.96846,-14.17523 z m 51.53595,24.86594 29.21447,14.09643 v 38.19494 l -29.21447,-12.95276 z m 47.95772,23.14405 26.78127,12.92287 v 36.40833 l -26.7817,-11.87381 z m -219.26381,10.11662 v 41.86733 l -26.51747,11.67096 v -40.29849 z m 119.77013,2.32134 31.96847,13.81391 v 39.17969 L 511.82999,694.9545 Z m -162.94249,19.23352 v 39.31371 L 325.59374,723.2112 V 685.273 Z m 214.47844,3.034 29.21448,12.62131 v 37.10603 l -29.21448,-11.37892 z m -253.44029,16.41278 v 37.01184 l -22.44634,9.87937 v -35.6857 z m 301.39802,4.31033 26.78127,11.56728 v 35.1709 L 611.32324,733.7086 Z m -219.26381,15.60597 v 42.32777 l -26.51747,9.696 v -40.98623 z m 119.77013,0.55418 31.96847,11.76513 v 39.46721 l -31.96846,-10.32987 z m 157.62558,8.95391 24.91286,10.76497 v 32.7803 l -24.91286,-9.70595 z m -320.56807,8.46356 v 40.14001 l -23.29376,8.51337 v -38.96237 z m 214.47844,1.54394 29.21448,10.75048 v 37.28441 l -29.21448,-9.43882 z m 146.13905,7.29587 22.25442,9.61677 v 31.18656 l -22.25442,-8.66642 z m -399.57978,7.37467 v 38.17002 l -22.4459,8.20639 v -37.03675 z m 301.39846,2.9792 26.78127,9.85446 v 35.24018 l -26.7817,-8.65146 z m 135.96974,5.97426 19.84965,8.57268 v 29.68654 l -19.84965,-7.73098 z m -77.83784,15.4176 24.91286,9.16626 v 32.71601 l -24.91286,-8.04794 z m -157.62558,1.89574 31.96846,9.78518 v 39.74883 l -31.96846,-8.23583 z m -119.77013,0.89556 v 42.13989 l -26.51747,7.5132 v -40.78837 z m 317.44513,11.94307 22.25442,8.19146 V 825.531 l -22.25442,-7.1863 z m -360.61749,2.4848 v 39.94758 l -23.29376,6.59681 V 796.5716 Z m 214.47844,0.45548 29.21448,8.94349 v 37.38358 l -29.21448,-7.52816 z m 183.92747,10.96781 19.84965,7.30041 v 29.45926 L 747.2934,830.5549 Z m -437.3682,1.59374 v 37.96764 l -22.4459,6.36001 v -36.82395 z m 301.39846,2.1185 26.78127,8.2014 v 35.18042 l -26.7817,-6.89926 z m 58.1319,17.79825 24.91286,7.62731 v 32.45881 l -24.91286,-6.42022 z m 40.04942,12.26453 22.25442,6.81052 v 30.64731 l -22.25442,-5.73655 z m -317.44513,2.36616 v 41.28326 l -26.51747,5.49433 v -40.24914 z m 355.23355,9.20112 19.84965,6.07794 v 28.93451 L 747.2934,875.4467 Z m -398.40591,1.42532 v 39.59579 l -23.29376,4.82558 v -38.68482 z m -38.96229,9.59683 v 38.07132 l -22.4459,4.64268 v -37.19025 z"
     style="fill:#909090;fill-opacity:1;stroke:none;stroke-width:2.82668;stroke-dasharray:none;stroke-opacity:1"
     id="path5" />
  <path
     d="M 551.78261,307.21606 H 807.2609 a 6.1816517,6.1816517 0 0 1 6.18166,6.18124 v 12.17802 a 6.1816517,6.1816517 0 0 1 -6.18124,6.18165 H 551.78261 a 6.1816517,6.1816517 0 0 1 -6.18164,-6.18165 V 313.3973 a 6.1816517,6.1816517 0 0 1 6.18164,-6.18124 z m 74.179,92.72312 h 181.29971 a 6.1816517,6.1816517 0 0 1 6.18124,6.18164 v 12.17803 a 6.1816517,6.1816517 0 0 1 -6.18124,6.18207 H 625.96161 a 6.1816517,6.1816517 0 0 1 -6.18207,-6.18207 v -12.17803 a 6.1816517,6.1816517 0 0 1 6.18207,-6.18164 z m 74.17816,92.72352 H 807.2609 a 6.1816517,6.1816517 0 0 1 6.18166,6.18165 v 12.17845 a 6.1816517,6.1816517 0 0 1 -6.18166,6.18165 H 700.13977 a 6.1816517,6.1816517 0 0 1 -6.18083,-6.18165 v -12.17845 a 6.1816517,6.1816517 0 0 1 6.18083,-6.18165 z"
     style="fill:#11b2c9;fill-opacity:1;stroke:none;stroke-width:2.63041;stroke-dasharray:none;stroke-opacity:1"
     id="path4" />
  <path
     d="M 811.19812,956.5971 H 204.58303 c -31.86406,0 -57.69487,-25.8309 -57.69487,-57.69493 V 657.28872 243.46182 c 0,-31.86366 25.83081,-57.69445 57.69446,-57.69445 h 614.83517 c 31.86365,0 57.69445,25.83079 57.69404,57.69445 v 655.44076 c 0,31.86362 -25.83039,57.69452 -57.69404,57.69452 z"
     style="fill:none;fill-opacity:1;stroke:#696969;stroke-width:30;stroke-dasharray:none;stroke-opacity:1"
     id="path2"
     sodipodi:nodetypes="csscssscssc" />
  <path
     d="m 345.78698,443.69692 a 191.58022,191.58064 0 0 0 19.73412,-43.61392 84.769121,84.769121 0 1 0 -160.52192,0 191.58022,191.58064 0 0 0 19.73495,43.61392 441.39496,441.3962 0 0 1 60.52622,150.90625 441.39496,441.3962 0 0 1 60.52622,-150.90625 z M 316.47615,372.8073 a 31.216222,31.216222 0 0 0 -62.43203,0 31.216222,31.216222 0 0 0 62.43203,0 z"
     style="fill:#11b2c9;fill-opacity:1;fill-rule:evenodd;stroke:none;stroke-width:2.89686;stroke-dasharray:none;stroke-opacity:1"
     id="path7" />
  <path
     d="M 507.59132,58.15402 A 64.644558,64.644558 0 0 0 447.35607,122.576 v 10.3261 h -92.92621 a 20.605367,20.605367 0 0 0 -20.60247,20.60247 v 68.74922 a 20.605367,20.605367 0 0 0 20.60247,20.60702 h 315.13988 a 20.605367,20.605367 0 0 0 20.60288,-20.60702 V 153.50457 A 20.605367,20.605367 0 0 0 669.56973,132.9021 H 576.64394 V 122.576 A 64.644558,64.644558 0 0 0 507.59132,58.15402 Z m 2.67758,39.16607 a 25.455688,25.455688 0 0 1 27.18618,25.25591 25.455688,25.455688 0 0 1 -50.91014,0 25.455688,25.455688 0 0 1 23.72396,-25.25591 z"
     style="fill:#696969;fill-opacity:1;fill-rule:evenodd;stroke:none;stroke-width:2.63041;stroke-dasharray:none;stroke-opacity:1"
     id="path3" />
</svg>
