<svg xmlns="http://www.w3.org/2000/svg" xml:space="preserve" width="2048" height="2048"><defs><path id="a" d="M389.405 1624.015h1261.528v337.364H389.405z"/></defs><text xml:space="preserve" style="font-size:240px;text-align:start;writing-mode:lr-tb;direction:ltr;white-space:pre;shape-inside:url(#a);display:inline;fill:none;fill-rule:evenodd;stroke-width:30" transform="matrix(3.46244 0 0 3.87546 -997.553 -4788.565)"><tspan x="389.404" y="1842.975">SnapDoc</tspan></text><path d="M811.198 958.322H204.583c-31.864 0-57.695-25.831-57.695-57.695v-655.44c0-31.864 25.831-57.695 57.695-57.695h614.835c31.863 0 57.694 25.831 57.694 57.695v655.44c0 31.864-25.83 57.695-57.694 57.695z" style="fill:#fff;fill-opacity:1;stroke:none;stroke-width:30;stroke-dasharray:none;stroke-opacity:1" transform="matrix(1.75113 0 0 1.75113 127.42 -50.335)"/><path d="M492.799 373.575 367.554 480.657V629.85L267.85 685.1v272.68a2279.647 2355.525 0 0 1 147.255-12.403V607.176l52.757 25.568V943.34a2279.647 2355.525 0 0 1 43.973-.733V833.574l31.968 7.643v101.488a2279.647 2355.525 0 0 1 19.567.356v-97.167l29.215 6.984v91.006a2279.647 2355.525 0 0 1 18.743.732v-87.254l26.781 6.404v82.171a2279.647 2355.525 0 0 1 109.19 8.77V889.87l19.849 4.746v62.274a2279.647 2355.525 0 0 1 16.918 2.005v-210.59l-127.07-63.813V487.65Zm19.031 44.18 31.968 20.495v39.17l-31.968-19.57zm51.536 33.047 29.214 18.734v37.745l-29.214-17.883zm-51.536 25.515 31.968 18.966v39.205l-31.968-17.645zm99.494 5.236 26.78 17.175v36.423l-26.78-16.398zm-47.958 25.341 29.214 17.339v37.185l-29.214-16.125zm47.958 28.46 26.78 15.892v35.305l-26.78-14.784zm-99.494.331 31.968 16.962v39.106l-31.968-15.938zm51.536 27.346 29.214 15.507v37.532l-29.214-14.567zm47.958 25.45 26.78 14.215v36.062l-26.78-13.348zm-99.494 5.484 31.968 15.423v40.106l-31.968-14.176zm51.536 24.866 29.214 14.097v38.195l-29.214-12.953zm47.958 23.144 26.78 12.923v36.409l-26.78-11.874zM392.06 652.092v41.867l-26.518 11.671v-40.298zm119.77 2.321 31.968 13.814v39.18l-31.968-12.452Zm-162.943 19.234v39.314l-23.293 10.25v-37.938Zm214.479 3.034 29.214 12.621v37.106l-29.214-11.379zm-253.44 16.413v37.011l-22.447 9.88v-35.686zm301.398 4.31 26.78 11.567v35.171l-26.78-10.433ZM392.06 713.01v42.328l-26.518 9.696v-40.987zm119.77.554 31.968 11.765v39.467l-31.968-10.33zm157.626 8.954 24.912 10.765v32.78l-24.912-9.706zm-320.569 8.464v40.14l-23.293 8.513v-38.962zm214.479 1.544 29.214 10.75v37.284l-29.214-9.438zm146.139 7.295 22.254 9.617v31.187l-22.254-8.667zm-399.58 7.375v38.17l-22.446 8.206v-37.036zm301.399 2.98 26.78 9.854v35.24l-26.78-8.652zm135.97 5.974 19.849 8.572v29.687l-19.85-7.731zm-77.838 15.417 24.912 9.166v32.716l-24.912-8.048zm-157.626 1.896 31.968 9.785v39.749l-31.968-8.236zm-119.77.895v42.14l-26.518 7.514v-40.789zm317.445 11.943 22.254 8.192v31.038l-22.254-7.186zm-360.618 2.485v39.948l-23.293 6.597v-38.76Zm214.479.456 29.214 8.943v37.384l-29.214-7.528zm183.927 10.968 19.85 7.3v29.46l-19.85-6.415Zm-437.368 1.593v37.968l-22.446 6.36v-36.824zm301.399 2.119 26.78 8.201v35.18l-26.78-6.899zm58.132 17.798 24.912 7.627v32.46l-24.912-6.421zm40.049 12.265 22.254 6.81v30.647l-22.254-5.736zM392.06 836.35v41.283l-26.518 5.494V842.88zm355.233 9.2 19.85 6.079v28.934l-19.85-5.117Zm-398.406 1.426v39.596l-23.293 4.826v-38.685zm-38.962 9.597v38.071l-22.446 4.643v-37.19z" style="fill:#909090;fill-opacity:1;stroke:none;stroke-width:2.82668;stroke-dasharray:none;stroke-opacity:1" transform="matrix(1.75113 0 0 1.75113 127.42 -50.335)"/><path d="M551.783 307.216H807.26a6.182 6.182 0 0 1 6.182 6.181v12.178a6.182 6.182 0 0 1-6.182 6.182H551.783a6.182 6.182 0 0 1-6.182-6.182v-12.178a6.182 6.182 0 0 1 6.182-6.18zm74.179 92.723h181.3a6.182 6.182 0 0 1 6.18 6.182v12.178a6.182 6.182 0 0 1-6.18 6.182h-181.3a6.182 6.182 0 0 1-6.182-6.182V406.12a6.182 6.182 0 0 1 6.182-6.182zm74.178 92.724h107.12a6.182 6.182 0 0 1 6.183 6.181v12.179a6.182 6.182 0 0 1-6.182 6.181H700.14a6.182 6.182 0 0 1-6.181-6.181v-12.179a6.182 6.182 0 0 1 6.18-6.181z" style="fill:#11b2c9;fill-opacity:1;stroke:none;stroke-width:2.63041;stroke-dasharray:none;stroke-opacity:1" transform="matrix(1.75113 0 0 1.75113 127.42 -50.335)"/><path d="M811.198 956.597H204.583c-31.864 0-57.695-25.83-57.695-57.695v-655.44c0-31.864 25.831-57.695 57.695-57.695h614.835c31.863 0 57.694 25.831 57.694 57.695v655.44c0 31.864-25.83 57.695-57.694 57.695z" style="fill:none;fill-opacity:1;stroke:#696969;stroke-width:30;stroke-dasharray:none;stroke-opacity:1" transform="matrix(1.75113 0 0 1.75113 127.42 -50.335)"/><path d="M345.787 443.697a191.58 191.58 0 0 0 19.734-43.614 84.77 84.77 0 1 0-160.522 0 191.58 191.58 0 0 0 19.735 43.614 441.395 441.396 0 0 1 60.526 150.906 441.395 441.396 0 0 1 60.527-150.906zm-29.31-70.89a31.216 31.216 0 0 0-62.433 0 31.216 31.216 0 0 0 62.432 0z" style="fill:#11b2c9;fill-opacity:1;fill-rule:evenodd;stroke:none;stroke-width:2.89686;stroke-dasharray:none;stroke-opacity:1" transform="matrix(1.75113 0 0 1.75113 127.42 -50.335)"/><path d="M507.591 58.154a64.645 64.645 0 0 0-60.235 64.422v10.326H354.43a20.605 20.605 0 0 0-20.603 20.603v68.749a20.605 20.605 0 0 0 20.603 20.607h315.14a20.605 20.605 0 0 0 20.603-20.607v-68.75a20.605 20.605 0 0 0-20.603-20.602h-92.926v-10.326a64.645 64.645 0 0 0-69.053-64.422Zm2.678 39.166a25.456 25.456 0 0 1 27.186 25.256 25.456 25.456 0 0 1-50.91 0 25.456 25.456 0 0 1 23.724-25.256z" style="fill:#696969;fill-opacity:1;fill-rule:evenodd;stroke:none;stroke-width:2.63041;stroke-dasharray:none;stroke-opacity:1" transform="matrix(1.75113 0 0 1.75113 127.42 -50.335)"/><text xml:space="preserve" style="font-style:normal;font-variant:normal;font-weight:400;font-stretch:normal;font-size:266.667px;font-family:Bahnschrift;-inkscape-font-specification:Bahnschrift;text-align:start;writing-mode:lr-tb;direction:ltr;white-space:pre;shape-inside:url(#b);display:inline;fill:#00b1ca;fill-opacity:1;fill-rule:evenodd;stroke:none;stroke-width:30;stroke-opacity:1" transform="matrix(1.18003 0 0 1.17823 554.73 -903.58)"><tspan x="-172.57" y="2409.791"><tspan style="font-weight:700;font-family:&quot;Century Gothic&quot;;-inkscape-font-specification:&quot;Century Gothic, Bold&quot;">Snap</tspan></tspan></text><text xml:space="preserve" style="font-style:normal;font-variant:normal;font-weight:400;font-stretch:normal;font-size:266.667px;font-family:Bahnschrift;-inkscape-font-specification:Bahnschrift;text-align:start;writing-mode:lr-tb;direction:ltr;white-space:pre;shape-inside:url(#c);display:inline;fill:#909090;fill-opacity:1;fill-rule:evenodd;stroke:none;stroke-width:30;stroke-opacity:1" transform="matrix(1.08577 0 0 1.17823 1301.589 -903.97)"><tspan x="-172.57" y="2409.791"><tspan style="font-family:&quot;Century Gothic&quot;;-inkscape-font-specification:&quot;Century Gothic, Normal&quot;">Doc</tspan></tspan></text></svg>