<?xml version="1.0" encoding="UTF-8" standalone="no"?>
<!-- Created with Inkscape (http://www.inkscape.org/) -->

<svg
   version="1.1"
   id="svg1"
   width="1000"
   height="1000"
   viewBox="0 0 999.99998 999.99996"
   sodipodi:docname="shapes64.svg"
   inkscape:export-filename="SnapDoc\fankman80\snapdoc\SnapDoc\Resources\Images\shapes64.png"
   inkscape:export-xdpi="6.1399999"
   inkscape:export-ydpi="6.1399999"
   inkscape:version="1.4.2 (f4327f4, 2025-05-13)"
   xmlns:inkscape="http://www.inkscape.org/namespaces/inkscape"
   xmlns:sodipodi="http://sodipodi.sourceforge.net/DTD/sodipodi-0.dtd"
   xmlns="http://www.w3.org/2000/svg"
   xmlns:svg="http://www.w3.org/2000/svg">
  <defs
     id="defs1" />
  <sodipodi:namedview
     id="namedview1"
     pagecolor="#ffffff"
     bordercolor="#000000"
     borderopacity="0.25"
     inkscape:showpageshadow="2"
     inkscape:pageopacity="0.0"
     inkscape:pagecheckerboard="0"
     inkscape:deskcolor="#d1d1d1"
     inkscape:zoom="0.70710678"
     inkscape:cx="405.87929"
     inkscape:cy="525.38034"
     inkscape:window-width="1920"
     inkscape:window-height="1009"
     inkscape:window-x="-8"
     inkscape:window-y="-8"
     inkscape:window-maximized="1"
     inkscape:current-layer="g7" />
  <g
     inkscape:groupmode="layer"
     inkscape:label="Image"
     id="g1">
    <g
       id="g7"
       transform="translate(-13.437419,1.5)">
      <path
         id="rect1"
         style="fill:#7f7f7f;fill-opacity:1;fill-rule:evenodd;stroke:#0000ff;stroke-width:0.234331;stroke-opacity:0"
         d="M 111,37 C 81.084,37 57,61.084 57,91 v 815 c 0,29.916 24.084,54 54,54 h 523 c 29.916,0 54,-24.084 54,-54 V 392.68164 L 626.24023,425.7832 V 791.69336 H 119.53906 V 97.29492 H 626.24023 V 253.47656 L 688,220.86719 V 91 C 688,61.084 663.916,37 634,37 Z m 261.95312,793.93555 c 24.55857,-5.8e-4 44.46737,19.90822 44.4668,44.46679 -5e-4,24.55781 -19.90899,44.46543 -44.4668,44.46485 -24.55705,-5.1e-4 -44.46434,-19.9078 -44.46484,-44.46485 -5.7e-4,-24.55781 19.90704,-44.46628 44.46484,-44.46679 z m -166.77148,10.80664 h 18 c 6.648,0 12,5.352 12,12 v 41 c 0,6.648 -5.352,12 -12,12 h -18 c -6.648,0 -12,-5.352 -12,-12 v -41 c 0,-6.648 5.352,-12 12,-12 z M 521,842 h 18 c 6.648,0 12,5.352 12,12 v 41 c 0,6.648 -5.352,12 -12,12 h -18 c -6.648,0 -12,-5.352 -12,-12 v -41 c 0,-6.648 5.352,-12 12,-12 z" />
      <path
         id="path4"
         style="fill:#7f7f7f;fill-opacity:1;fill-rule:evenodd;stroke:#0000ff;stroke-width:0.234331;stroke-opacity:0"
         d="M 915.9004,126.58203 C 909.52236,126.78144 902.83861,128.17518 896,131 l -450,249 52,91 455,-254 c 37.2035,-34.67347 7.5466,-91.81385 -37.0996,-90.41797 z M 547.17773,372.10352 c 4.37948,9.5e-4 8.5929,2.36457 10.80665,6.54101 3.21999,6.07482 0.95115,13.61412 -5.08594,16.9043 l -27.67383,15.08203 c -6.03709,3.29018 -13.48899,1.04943 -16.70899,-5.02539 -3.21999,-6.07482 -0.95115,-13.61412 5.08594,-16.9043 l 27.67383,-15.08203 c 1.88659,-1.02818 3.91167,-1.51606 5.90234,-1.51562 z"
         sodipodi:nodetypes="sccccsssssssss" />
      <path
         style="fill:#808080;fill-opacity:1;fill-rule:evenodd;stroke:#0000ff;stroke-width:0;stroke-dasharray:none;stroke-opacity:0"
         d="m 437,388 47.75,87.25 -103.25,13 c -7.95558,1.00167 -15.12914,-1.72169 -15.25,-12 -0.18743,-15.93963 1.61997,-28.75694 -2.81778,-43.29607 -7.60063,-24.90152 -18.95656,-35.89851 -42.109,-36.24682 C 290.53292,396.24389 270.02975,415.27477 260.5,433 c -9.0539,16.84015 -9.82993,41.29183 0.5,64 9.15522,20.12581 32.64788,32.48061 50,47 17.18954,14.38335 27.78214,34.93152 29.73744,50.2981 1.96189,15.41839 -2.01908,32.85487 -12.48744,45.4519 -9.46465,11.38923 -21.31797,19.28593 -34.75,24.25 -12.86085,4.75298 -20.54311,-11.61105 -9,-17.125 19.38815,-9.2614 28.67384,-13.29062 35.2981,-29.75888 6.4826,-16.11608 0.93669,-33.85355 -7.88389,-45.90901 C 303.43243,559.61469 284.07495,548.54985 267.5,535.5 254.80038,525.50129 242.63222,506.35194 238,489 c -5.62387,-21.06659 -5.35528,-41.58985 2.5,-59 9.40465,-20.84411 24.74516,-36.90942 46,-46 20.81668,-8.90319 44.23024,-11.30127 64,1 13.78485,8.57731 21.78488,17.59127 29,36.5 4.4685,11.71063 5.43234,32.58587 5.5,32.5 z"
         id="path6"
         sodipodi:nodetypes="ccssssssssssssssssssscc" />
    </g>
  </g>
</svg>
