<?xml version="1.0" standalone="no"?>
<!DOCTYPE svg PUBLIC "-//W3C//DTD SVG 20010904//EN"
 "http://www.w3.org/TR/2001/REC-SVG-20010904/DTD/svg10.dtd">
<svg version="1.0" xmlns="http://www.w3.org/2000/svg"
 width="9449.000000pt" height="9298.000000pt" viewBox="0 0 9449.000000 9298.000000"
 preserveAspectRatio="xMidYMid meet">

<g transform="translate(0.000000,9298.000000) scale(0.100000,-0.100000)"
fill="#000000" stroke="none">
<path d="M0 46490 l0 -46490 47245 0 47245 0 0 46490 0 46490 -47245 0 -47245
0 0 -46490z m26600 6090 l0 -870 -4335 0 -4335 0 0 -2975 0 -2975 4200 0 4200
0 0 -865 0 -865 -4200 0 -4200 0 0 -3050 0 -3050 4335 0 4335 0 0 -860 0 -860
-5370 0 -5370 0 0 8620 0 8620 5370 0 5370 0 0 -870z m39870 -2162 l0 -3031
75 109 c131 191 235 314 435 515 191 193 354 331 541 461 627 436 1367 706
2179 793 80 9 260 19 400 22 1294 29 2603 -391 3630 -1167 396 -299 792 -698
1097 -1105 622 -831 957 -1793 1058 -3035 33 -414 35 -655 35 -4212 l0 -3558
-955 0 -954 0 -4 3678 c-3 4002 0 3774 -58 4232 -80 639 -254 1172 -537 1644
-268 446 -730 883 -1247 1178 -796 454 -1795 626 -2681 463 -874 -162 -1717
-638 -2276 -1285 -393 -454 -614 -1057 -693 -1885 -38 -401 -38 -429 -42
-4267 l-4 -3758 -955 0 -954 0 0 8620 0 8620 955 0 955 0 0 -3032z m-32400
-1138 c1481 -93 2749 -724 3722 -1852 37 -42 121 -158 188 -258 l122 -183 80
154 c101 193 140 252 274 414 660 796 1733 1403 2889 1634 615 123 1228 133
1790 30 1077 -198 2171 -828 3176 -1829 322 -321 531 -604 714 -968 302 -604
437 -1187 507 -2202 8 -117 12 -1299 15 -4087 l4 -3923 -950 0 -951 0 -3 3888
c-2 2900 -6 3917 -15 4007 -41 412 -71 612 -132 861 -115 477 -297 854 -585
1214 -563 705 -1281 1125 -2135 1250 -927 135 -1844 -109 -2600 -694 -58 -44
-184 -160 -281 -256 -266 -264 -385 -423 -518 -691 -194 -389 -294 -850 -331
-1519 -6 -119 -10 -1584 -10 -4122 l0 -3938 -950 0 -950 0 -3 3998 c-3 4362 1
4063 -57 4442 -90 585 -332 1129 -693 1561 -714 852 -1746 1315 -2787 1249
-734 -46 -1379 -284 -1930 -711 -216 -167 -497 -472 -628 -679 -317 -506 -460
-1039 -502 -1869 -6 -132 -10 -1581 -10 -4097 l0 -3894 -950 0 -950 0 0 6405
0 6405 900 0 900 0 0 -712 0 -712 89 133 c537 796 1369 1315 2396 1495 132 23
382 52 505 59 137 8 500 6 650 -3z m22930 -15 c1015 -93 1953 -377 2804 -849
1182 -656 2118 -1623 2690 -2781 107 -217 266 -591 266 -627 0 -4 -477 -8
-1059 -8 l-1060 0 -52 88 c-210 349 -448 651 -745 944 -185 183 -296 280 -486
423 -1028 778 -2272 1122 -3539 980 -1066 -121 -2017 -528 -2806 -1201 -172
-148 -459 -445 -605 -627 -500 -625 -833 -1357 -968 -2132 -60 -347 -85 -808
-61 -1150 50 -704 223 -1342 526 -1940 693 -1365 2003 -2323 3518 -2575 281
-46 447 -61 762 -67 1366 -27 2463 344 3392 1145 335 289 719 715 985 1093
l83 118 1053 0 c578 1 1052 -1 1052 -4 0 -3 -42 -94 -93 -202 -300 -639 -692
-1236 -1149 -1748 -143 -161 -437 -453 -583 -581 -1410 -1230 -3207 -1794
-5160 -1619 -1413 127 -2741 655 -3820 1519 -258 206 -572 504 -794 751 -1262
1409 -1851 3269 -1635 5165 88 774 341 1582 714 2279 423 792 991 1478 1715
2072 227 186 582 432 860 594 962 563 2015 880 3165 955 203 13 825 4 1030
-15z m28220 -2890 l0 -2655 2675 0 2675 0 0 -980 0 -980 -2675 0 -2675 0 0
-2810 0 -2810 -965 0 -965 0 0 2810 0 2810 -2675 0 -2675 0 0 980 0 980 2675
0 2675 0 0 2655 0 2655 965 0 965 0 0 -2655z m-63950 -13344 c1081 -55 1785
-178 2485 -432 1421 -517 2516 -1602 2954 -2926 83 -252 152 -579 183 -863 19
-177 16 -654 -6 -830 -25 -205 -60 -391 -107 -565 -235 -869 -810 -1634 -1716
-2282 l-145 -103 47 -20 c153 -66 207 -91 365 -169 788 -393 1413 -929 1855
-1591 421 -632 651 -1302 726 -2120 19 -201 16 -652 -5 -840 -80 -738 -328
-1423 -743 -2054 -174 -265 -353 -485 -593 -730 -392 -399 -793 -689 -1295
-935 -811 -399 -1637 -608 -2735 -696 -641 -50 -1020 -56 -3967 -62 l-2713 -5
0 8622 0 8622 2603 -5 c1609 -3 2680 -9 2807 -16z m14735 -4151 c712 -33 1342
-161 2005 -407 650 -241 1323 -625 1870 -1067 288 -232 666 -595 887 -851 517
-598 924 -1305 1177 -2043 265 -774 384 -1554 432 -2839 l6 -173 -5706 0
c-4558 0 -5706 -3 -5706 -12 0 -7 7 -74 16 -148 130 -1132 803 -2246 1824
-3024 849 -647 1839 -996 2819 -996 1094 1 2186 364 3051 1016 585 441 1047
1000 1341 1622 l58 122 985 0 986 0 -50 -142 c-925 -2629 -3618 -4498 -6375
-4424 -1045 28 -1973 251 -2870 690 -1533 750 -2705 2056 -3290 3665 -481
1323 -534 2849 -145 4216 467 1640 1514 3004 2975 3875 181 108 577 309 775
392 921 389 1949 574 2935 528z m25455 -16 c1204 -94 2320 -504 3210 -1180
441 -334 840 -755 1126 -1188 l59 -89 3 1101 2 1102 905 0 905 0 0 -5677 c0
-5445 -3 -6087 -30 -6513 -79 -1250 -375 -2101 -1040 -2985 -304 -403 -590
-703 -948 -990 -1006 -809 -2424 -1373 -3853 -1534 -314 -36 -479 -45 -824
-44 -355 0 -559 13 -855 54 -1248 175 -2429 725 -3377 1573 -820 734 -1423
1645 -1764 2667 -48 145 -149 503 -149 532 0 4 413 7 918 7 l917 0 49 -93
c230 -432 491 -825 773 -1162 792 -948 1794 -1514 2983 -1684 280 -40 376 -46
795 -46 438 1 534 7 864 61 1477 238 2692 1069 3279 2240 261 522 382 984 432
1659 11 137 26 1281 19 1320 -3 15 -14 2 -43 -50 -59 -107 -256 -399 -341
-505 -833 -1042 -2171 -1712 -3774 -1890 -1164 -130 -2360 78 -3495 606 -763
355 -1505 881 -2027 1435 -612 651 -1032 1300 -1333 2061 -237 600 -368 1178
-438 1928 -17 183 -17 960 0 1140 90 962 335 1860 722 2645 188 382 284 531
550 855 227 277 385 454 590 664 1238 1265 2647 1916 4317 1996 228 11 624 4
873 -16z m14385 16 c1236 -58 2373 -435 3413 -1132 406 -273 714 -531 1082
-904 240 -244 358 -379 521 -597 889 -1186 1284 -2476 1344 -4387 3 -96 8
-217 11 -267 l5 -93 -5711 0 -5711 0 6 -57 c42 -380 105 -660 221 -980 403
-1113 1322 -2110 2459 -2667 644 -316 1312 -476 1984 -476 986 1 1981 298
2801 838 705 463 1257 1083 1591 1786 l64 136 978 0 c537 0 977 -2 977 -5 0
-17 -134 -367 -196 -512 -554 -1296 -1584 -2438 -2857 -3167 -854 -489 -1728
-770 -2687 -863 -336 -32 -917 -22 -1315 23 -2972 336 -5313 2532 -5815 5454
-73 426 -95 704 -95 1190 0 400 7 532 46 850 201 1677 1008 3188 2284 4275
522 445 1172 835 1818 1089 879 347 1849 509 2782 466z m-26810 -130 c1356
-62 2482 -474 3374 -1233 292 -249 697 -703 909 -1018 349 -520 560 -1123 671
-1919 46 -328 81 -843 81 -1187 l0 -173 -960 0 -960 0 0 118 c0 358 -52 805
-130 1112 -229 902 -871 1690 -1725 2118 -511 256 -1112 378 -1680 343 -382
-24 -708 -89 -1025 -204 -444 -162 -807 -388 -1134 -706 -160 -157 -266 -282
-367 -434 -296 -445 -452 -935 -514 -1611 -32 -345 -35 -766 -35 -4513 l0
-3763 -935 0 -935 0 0 6400 0 6400 890 0 890 0 0 -702 0 -702 79 117 c324 479
778 875 1306 1139 547 275 1177 419 1860 426 66 1 219 -3 340 -8z m40045 0
c915 -43 1682 -230 2385 -582 682 -342 1200 -773 1733 -1446 521 -657 796
-1474 887 -2632 13 -164 35 -682 35 -827 l0 -43 -959 0 -959 0 -6 63 c-3 34
-8 141 -11 238 -19 639 -143 1159 -386 1618 -169 318 -360 572 -630 837 -743
726 -1777 1056 -2834 903 -719 -104 -1345 -401 -1828 -868 -243 -235 -400
-448 -548 -742 -216 -431 -322 -895 -359 -1569 -6 -119 -10 -1582 -10 -4102
l0 -3918 -940 0 -940 0 0 6400 0 6400 890 0 890 0 0 -705 0 -706 79 118 c622
926 1678 1491 2917 1562 206 12 355 12 594 1z"/>
<path d="M20345 31310 c-137 -4 -737 -8 -1332 -9 l-1083 -1 0 -2775 0 -2775
1273 0 c1231 0 1824 9 2147 30 871 58 1504 210 2054 493 280 144 481 293 701
518 328 337 553 734 665 1174 95 372 97 734 5 1090 -115 450 -381 902 -740
1260 -551 549 -1284 846 -2355 954 -374 38 -887 54 -1335 41z"/>
<path d="M17930 20767 l0 -3234 1598 -5 c878 -3 1728 -2 1887 3 1535 48 2535
316 3220 866 618 495 1051 1193 1169 1883 60 350 37 821 -60 1210 -127 513
-379 956 -758 1336 -214 214 -412 365 -671 515 -567 326 -1374 534 -2375 614
-469 37 -541 38 -2277 42 l-1733 4 0 -3234z"/>
<path d="M35560 27044 c-761 -41 -1427 -214 -2055 -534 -1240 -632 -2129
-1733 -2471 -3058 -24 -94 -44 -179 -44 -187 0 -13 533 -15 4730 -15 l4730 0
-6 28 c-21 93 -72 277 -111 397 -423 1308 -1424 2410 -2699 2971 -463 203
-928 326 -1434 378 -145 15 -517 27 -640 20z"/>
<path d="M60602 27040 c-876 -58 -1689 -355 -2397 -874 -355 -261 -707 -611
-977 -971 -704 -941 -1028 -2100 -927 -3320 37 -458 122 -877 264 -1300 177
-532 417 -990 748 -1429 363 -481 848 -911 1362 -1206 579 -333 1200 -529
1905 -602 165 -17 762 -17 935 0 662 66 1158 203 1670 461 443 224 793 485
1180 882 537 550 954 1247 1215 2029 205 616 286 1197 250 1790 -76 1215 -550
2290 -1375 3115 -820 821 -1912 1312 -3140 1414 -178 15 -561 21 -713 11z"/>
<path d="M75405 27043 c-1009 -47 -1969 -390 -2765 -987 -264 -197 -638 -550
-829 -781 -399 -482 -683 -991 -868 -1555 -42 -128 -123 -429 -123 -457 0 -11
852 -13 4740 -13 3785 0 4740 3 4740 13 0 26 -73 289 -119 427 -71 212 -132
361 -235 575 -258 532 -569 962 -1003 1385 -393 384 -790 665 -1278 905 -234
115 -373 173 -610 252 -524 176 -1123 261 -1650 236z"/>
</g>
</svg>
