<svg xmlns="http://www.w3.org/2000/svg" width="2048pt" height="2048pt" preserveAspectRatio="xMidYMid" version="1.0" viewBox="0 0 2048 2048"><path d="M0 1024v1024h2048V0H0Zm576.535-134.14v19.163H388.619v131.056h182.064v38.106H388.619v134.36h187.916V1250.43H343.754V870.697h232.781zm864.152 47.621v66.762l1.626-2.401c2.84-4.207 5.093-6.917 9.428-11.344 4.14-4.25 7.673-7.29 11.726-10.154 13.59-9.603 29.629-15.55 47.228-17.467 1.734-.198 5.636-.418 8.67-.484 28.046-.64 56.418 8.612 78.677 25.704 8.583 6.586 17.166 15.375 23.777 24.34 13.481 18.303 20.742 39.492 22.931 66.849.716 9.119.76 14.427.76 92.774v78.37H1604.132l-.087-81.013c-.065-88.149 0-83.127-1.257-93.215-1.734-14.074-5.505-25.814-11.639-36.21-5.809-9.825-15.822-19.45-27.028-25.948-17.252-10-38.905-13.788-58.108-10.198-18.944 3.568-37.215 14.053-49.331 28.304-8.518 10-13.308 23.282-15.02 41.52-.824 8.832-.824 9.449-.91 93.985l-.087 82.775h-41.376V870.697H1440.688zm-702.245 25.066c32.1 2.048 59.582 15.947 80.671 40.792.802.926 2.623 3.48 4.075 5.683l2.644 4.031 1.734-3.392c2.19-4.251 3.035-5.55 5.939-9.119 14.305-17.533 37.561-30.903 62.617-35.99 13.33-2.71 26.616-2.93 38.797-.662 23.343 4.362 47.055 18.238 68.837 40.286 6.98 7.07 11.51 13.304 15.476 21.322 6.545 13.304 9.471 26.145 10.988 48.502.174 2.577.26 28.612.326 90.02l.086 86.41H989.43l-.066-85.638c-.043-63.876-.13-86.277-.325-88.26-.888-9.074-1.538-13.48-2.86-18.964-2.493-10.506-6.438-18.81-12.68-26.74-12.203-15.528-27.765-24.78-46.275-27.533-20.092-2.973-39.967 2.401-56.353 15.287-1.257.969-3.988 3.524-6.09 5.638-5.765 5.815-8.345 9.317-11.227 15.22-4.205 8.569-6.373 18.723-7.175 33.458-.13 2.621-.216 34.89-.216 90.793v86.739h-41.181l-.065-88.061c-.065-96.079.021-89.493-1.236-97.84-1.95-12.886-7.196-24.868-15.02-34.384-15.475-18.766-37.843-28.964-60.406-27.51-15.91 1.013-29.889 6.255-41.832 15.66-4.681 3.679-10.772 10.397-13.61 14.956-6.872 11.145-9.971 22.885-10.881 41.167-.13 2.908-.217 34.824-.217 90.242v85.77h-41.181V968.274H659.547V999.639l1.93-2.93c11.639-17.532 29.671-28.964 51.93-32.929 2.862-.506 8.28-1.145 10.946-1.3 2.97-.175 10.838-.131 14.089.067zm496.99.33c22 2.049 42.33 8.304 60.775 18.7 25.619 14.45 45.906 35.75 58.304 61.256 2.319 4.78 5.765 13.017 5.765 13.81 0 .088-10.339.176-22.953.176h-22.975l-1.127-1.938c-4.551-7.687-9.71-14.34-16.147-20.793-4.01-4.03-6.416-6.167-10.534-9.317-22.281-17.136-49.244-24.713-76.705-21.586-23.105 2.665-43.717 11.63-60.818 26.454-3.728 3.26-9.948 9.801-13.113 13.81-10.837 13.767-18.055 29.89-20.98 46.96-1.301 7.643-1.843 17.797-1.323 25.33 1.084 15.507 4.834 29.56 11.4 42.731 15.021 30.066 43.414 51.167 76.251 56.718 6.09 1.013 9.688 1.343 16.516 1.476 29.607.594 53.383-7.577 73.519-25.22 7.26-6.366 15.584-15.75 21.349-24.075l1.799-2.6h22.823c12.528-.021 22.801.023 22.801.089s-.91 2.07-2.016 4.45c-6.502 14.074-14.998 27.224-24.903 38.501-3.1 3.546-9.472 9.978-12.636 12.797-30.561 27.093-69.51 39.515-111.84 35.66-30.625-2.797-59.409-14.426-82.795-33.457-5.592-4.537-12.398-11.101-17.21-16.542-27.352-31.035-40.118-72.004-35.437-113.765 1.907-17.049 7.391-34.846 15.476-50.198 9.168-17.445 21.479-32.555 37.17-45.638 4.921-4.097 12.615-9.516 18.64-13.084 20.851-12.4 43.674-19.383 68.6-21.035 4.4-.286 17.881-.088 22.324.33zm611.648 63.656v58.48h115.957v43.171H1847.08v123.788h-41.832v-123.788h-115.957v-43.171h115.957v-116.96h41.832zM461.01 1320.451c23.43 1.212 38.689 3.92 53.86 9.516 30.8 11.387 54.533 35.286 64.027 64.448 1.799 5.551 3.294 12.754 3.966 19.009.412 3.899.347 14.405-.13 18.282-.542 4.515-1.3 8.612-2.32 12.445-5.093 19.14-17.555 35.99-37.192 50.264l-3.143 2.268 1.019.44c3.316 1.454 4.486 2.005 7.91 3.723 17.08 8.656 30.626 20.463 40.206 35.044 9.125 13.92 14.11 28.678 15.736 46.696.412 4.427.347 14.36-.108 18.502-1.734 16.255-7.11 31.343-16.104 45.241-3.772 5.837-7.651 10.683-12.853 16.08-8.496 8.788-17.188 15.176-28.068 20.594-17.578 8.789-35.481 13.392-59.28 15.33-13.893 1.102-22.107 1.234-85.981 1.366l-58.802.11v-379.82l56.418.11c34.874.066 58.087.198 60.84.352zm319.37 91.431c15.432.727 29.087 3.546 43.457 8.965 14.089 5.308 28.675 13.766 40.531 23.502 6.242 5.11 14.435 13.105 19.225 18.744 11.206 13.172 20.027 28.744 25.51 45 5.744 17.048 8.324 34.229 9.364 62.532l.13 3.81H794.925c-98.791 0-123.673.067-123.673.265 0 .154.151 1.63.346 3.26 2.818 24.934 17.405 49.471 39.534 66.607 18.402 14.251 39.86 21.939 61.1 21.939 23.711-.023 47.38-8.018 66.128-22.38 12.68-9.713 22.693-22.025 29.065-35.726l1.257-2.687h42.72l-1.084 3.128c-20.048 57.907-78.417 99.074-138.173 97.444-22.65-.617-42.763-5.529-62.205-15.198-33.227-16.52-58.629-45.286-71.308-80.726-10.426-29.141-11.574-62.753-3.143-92.863 10.122-36.123 32.815-66.167 64.48-85.352 3.924-2.379 12.507-6.806 16.798-8.634 19.962-8.568 42.244-12.643 63.614-11.63zm551.718.353c26.096 2.07 50.285 11.1 69.575 25.99 9.558 7.357 18.206 16.63 24.405 26.168l1.279 1.96.065-24.25.043-24.274h39.23v125.043c0 119.933-.065 134.074-.65 143.457-1.712 27.533-8.128 46.277-22.54 65.748-6.59 8.877-12.789 15.485-20.548 21.806-21.804 17.82-52.539 30.242-83.511 33.789-6.806.793-10.382.99-17.86.969-7.694 0-12.116-.286-18.531-1.19-27.05-3.854-52.647-15.969-73.194-34.647-17.773-16.167-30.842-36.233-38.233-58.744-1.04-3.194-3.23-11.079-3.23-11.718 0-.088 8.952-.154 19.897-.154h19.875l1.062 2.048c4.985 9.516 10.642 18.172 16.755 25.595 17.166 20.88 38.883 33.348 64.654 37.092 6.069.881 8.15 1.013 17.23 1.013 9.494-.022 11.575-.154 18.727-1.343 32.013-5.242 58.348-23.546 71.07-49.339 5.657-11.498 8.28-21.674 9.364-36.542.238-3.017.563-28.215.411-29.074-.065-.33-.303-.044-.932 1.101-1.278 2.357-5.548 8.789-7.39 11.123-18.055 22.952-47.055 37.71-81.8 41.63-25.228 2.863-51.15-1.718-75.75-13.348-16.538-7.82-32.62-19.405-43.934-31.608-13.265-14.339-22.368-28.634-28.892-45.396-5.137-13.215-7.976-25.947-9.493-42.466-.369-4.031-.369-21.145 0-25.11 1.95-21.19 7.26-40.969 15.648-58.26 4.075-8.414 6.156-11.696 11.921-18.832 4.92-6.101 8.345-10 12.788-14.625 26.833-27.864 57.372-42.203 93.568-43.965 4.942-.242 13.525-.088 18.921.353zm311.784-.353c26.79 1.278 51.433 9.582 73.975 24.934 8.8 6.013 15.475 11.696 23.451 19.912 5.202 5.374 7.76 8.348 11.293 13.15 19.268 26.122 27.83 54.536 29.13 96.628.065 2.115.173 4.78.238 5.881l.109 2.049h-247.564l.13 1.255c.91 8.37 2.276 14.538 4.79 21.586 8.735 24.515 28.654 46.475 53.297 58.744 13.958 6.96 28.437 10.485 43.002 10.485 21.37-.023 42.937-6.564 60.71-18.458 15.28-10.199 27.244-23.855 34.483-39.34l1.387-2.995h21.198c11.639 0 21.176.044 21.176.11 0 .375-2.905 8.084-4.249 11.278-12.007 28.546-34.332 53.7-61.923 69.757-18.51 10.77-37.453 16.96-58.239 19.008-7.282.705-19.875.485-28.501-.506-64.416-7.401-115.156-55.77-126.036-120.131-1.582-9.383-2.06-15.507-2.06-26.212 0-8.81.153-11.717.998-18.722 4.356-36.938 21.848-70.22 49.504-94.162 11.314-9.802 25.402-18.392 39.404-23.987 19.051-7.643 40.075-11.21 60.297-10.264zm-581.086 2.864c29.39 1.365 53.795 10.44 73.129 27.158 6.329 5.484 15.107 15.484 19.702 22.423 7.564 11.453 12.137 24.735 14.543 42.268.997 7.225 1.756 18.568 1.756 26.145v3.81H1130.312v-2.598c0-7.886-1.127-17.732-2.818-24.494-4.963-19.867-18.878-37.224-37.388-46.651-11.075-5.639-24.101-8.326-36.412-7.555-8.28.528-15.346 1.96-22.216 4.493-9.624 3.568-17.492 8.546-24.579 15.55-3.468 3.459-5.765 6.212-7.954 9.56-6.416 9.802-9.797 20.595-11.141 35.484-.694 7.6-.759 16.872-.759 99.405v82.885h-40.531v-281.936h38.58V1451.618l1.713-2.578c7.022-10.55 16.862-19.273 28.306-25.087 11.856-6.058 25.511-9.23 40.315-9.384 1.43-.022 4.746.066 7.369.177zm867.945 0c19.832.947 36.456 5.066 51.693 12.819 14.782 7.533 26.01 17.026 37.562 31.85 11.292 14.471 17.252 32.466 19.225 57.973.282 3.612.758 15.022.758 18.216v.947h-41.571l-.13-1.388c-.065-.749-.173-3.106-.238-5.242-.412-14.075-3.1-25.529-8.367-35.639-3.662-7.004-7.802-12.599-13.654-18.436-16.104-15.99-38.515-23.26-61.425-19.89-15.584 2.291-29.152 8.833-39.62 19.12-5.267 5.176-8.67 9.867-11.878 16.343-4.682 9.493-6.98 19.713-7.781 34.56-.13 2.62-.217 34.845-.217 90.35v86.3h-40.748v-281.936h38.58V1451.77l1.713-2.598c13.481-20.397 36.37-32.842 63.224-34.405 4.465-.265 7.694-.265 12.874-.022z"/><path d="M440.963 1358.358c-2.97.089-15.974.177-28.87.199l-23.474.022v122.245h27.592c26.68 0 39.533-.198 46.534-.66 18.879-1.278 32.598-4.626 44.52-10.86 6.068-3.171 10.424-6.453 15.193-11.409 7.109-7.423 11.986-16.167 14.413-25.859 2.06-8.194 2.103-16.167.109-24.008-2.493-9.912-8.258-19.868-16.04-27.753-11.942-12.093-27.83-18.635-51.042-21.013-8.106-.837-19.225-1.19-28.935-.904zM388.62 1590.581v71.233l34.635.11c19.03.066 37.453.044 40.9-.066 33.269-1.057 54.943-6.96 69.79-19.075 13.395-10.903 22.78-26.277 25.337-41.475 1.3-7.71.802-18.084-1.3-26.652-2.753-11.3-8.215-21.057-16.43-29.427-4.637-4.714-8.929-8.04-14.543-11.343-12.289-7.181-29.78-11.762-51.476-13.525-10.165-.815-11.726-.837-49.352-.925l-37.562-.088zM770.736 1452.322c-16.494.903-30.929 4.714-44.54 11.762-26.876 13.921-46.145 38.172-53.557 67.357-.52 2.07-.954 3.942-.954 4.119 0 .286 11.552.33 102.52.33h102.518l-.13-.617c-.455-2.048-1.56-6.101-2.405-8.744-9.169-28.81-30.865-53.083-58.5-65.44-10.034-4.472-20.113-7.18-31.08-8.326-3.143-.33-11.206-.595-13.872-.44zM1313.503 1452.41c-18.987 1.278-36.608 7.82-51.953 19.251-7.695 5.75-15.324 13.458-21.176 21.388-15.259 20.727-22.281 46.255-20.092 73.127.802 10.088 2.644 19.317 5.722 28.634 3.836 11.718 9.038 21.806 16.212 31.476 7.868 10.594 18.38 20.066 29.52 26.563 12.55 7.335 26.01 11.652 41.29 13.26 3.576.374 16.516.374 20.265 0 14.349-1.454 25.1-4.471 36.196-10.154 9.602-4.934 17.188-10.683 25.576-19.427 11.64-12.115 20.677-27.467 26.334-44.691 4.444-13.569 6.2-26.366 5.419-39.427-1.647-26.762-11.921-50.44-29.802-68.612-17.773-18.084-41.441-28.899-68.057-31.145-3.858-.33-12.16-.463-15.454-.243zM1634.347 1452.344c-21.87 1.036-42.677 8.59-59.93 21.74-5.721 4.34-13.828 12.115-17.967 17.203-8.648 10.616-14.804 21.828-18.814 34.25-.91 2.82-2.666 9.45-2.666 10.067 0 .242 18.467.286 102.736.286 82.037 0 102.736-.066 102.736-.286 0-.573-1.582-6.366-2.579-9.406-1.539-4.67-2.861-7.951-5.093-12.665-5.592-11.718-12.333-21.189-21.74-30.506-8.518-8.458-17.122-14.648-27.7-19.934-5.071-2.533-8.084-3.81-13.22-5.55-11.358-3.877-24.34-5.75-35.763-5.199z"/></svg>