<?xml version="1.0" encoding="UTF-8"?>
<svg preserveAspectRatio="xMidYMid" version="1.0" viewBox="0 0 240 240" xmlns="http://www.w3.org/2000/svg">
 <path d="m40 40v160h160v-160zm26.856 68.023h18.186v2.9943h-14.681v10.239h14.224v2.977h-14.224v10.497h14.681v2.9597h-18.186zm82.464 0h3.2342v10.433l0.12695-0.18765c0.2219-0.32868 0.39807-0.54053 0.73679-0.88644 0.32333-0.33194 0.59935-0.56941 0.91602-0.79313 1.0618-0.75017 2.3147-1.2148 3.6896-1.3645 0.1355-0.0154 0.44034-0.0328 0.67738-0.038 2.191-0.05 4.4077 0.67287 6.1467 2.0082 0.67055 0.51442 1.3412 1.2011 1.8575 1.9014 1.0532 1.43 1.6205 3.0856 1.7915 5.2228 0.0559 0.71245 0.0594 1.1269 0.0594 7.2478v6.1228h-3.2327l-7e-3 -6.3293c-5e-3 -6.8866 0-6.4942-0.0982-7.2823-0.1355-1.0996-0.43021-2.0168-0.90939-2.8291-0.45385-0.76753-1.236-1.5193-2.1114-2.0271-1.3478-0.78125-3.0396-1.0772-4.5398-0.79672-1.48 0.27869-2.9073 1.098-3.8538 2.2114-0.66546 0.78122-1.0397 1.8188-1.1735 3.2437-0.0644 0.68999-0.0644 0.73801-0.0711 7.3424l-7e-3 6.467h-3.2324zm-37.761 7.1606c0.5086-9e-3 1.006 0.0315 1.4817 0.12009 1.8238 0.34082 3.6762 1.4248 5.3778 3.1473 0.54537 0.5524 0.89946 1.0394 1.2092 1.6658 0.51143 1.0393 0.73987 2.0426 0.8584 3.7892 0.0135 0.20128 0.0203 2.2354 0.0255 7.0329l7e-3 6.7507h-3.2189l-5e-3 -6.6905c-3e-3 -4.9902-0.0103-6.7403-0.0255-6.8953-0.0693-0.70878-0.12007-1.0531-0.22332-1.4815-0.19476-0.82078-0.50305-1.4695-0.99071-2.089-0.95329-1.2132-2.169-1.9361-3.6151-2.1512-1.5696-0.2322-3.1224 0.18778-4.4026 1.1944-0.0982 0.0757-0.31152 0.27542-0.47573 0.44054-0.45033 0.45426-0.65197 0.72765-0.87726 1.1888-0.32842 0.66949-0.49772 1.4628-0.56037 2.614-0.0102 0.2048-0.0168 2.7258-0.0168 7.0931v6.7767h-3.2174l-5e-3 -6.8797c-5e-3 -7.5062 2e-3 -6.9916-0.0966-7.6438-0.15233-1.0067-0.56223-1.9428-1.1735-2.6864-1.2088-1.4659-2.9566-2.2627-4.7193-2.1492-1.2431 0.0791-2.3352 0.48871-3.2681 1.2235-0.36576 0.28743-0.84135 0.8122-1.0631 1.1684-0.53687 0.87065-0.77897 1.7879-0.84998 3.2162-0.0102 0.22711-0.0171 2.7205-0.0171 7.05v6.701h-3.2174v-22.044h3.0479v2.4505l0.15093-0.22894c0.90928-1.3697 2.318-2.2629 4.0569-2.5727 0.2236-0.0396 0.64689-0.0893 0.85509-0.10147 0.23208-0.0135 0.84683-0.0103 1.1008 5e-3 2.5078 0.1599 4.6547 1.2458 6.3022 3.1868 0.0627 0.0723 0.20512 0.27181 0.31868 0.44385l0.20651 0.31485 0.13538-0.26488c0.17099-0.33208 0.23713-0.43351 0.464-0.71233 1.1176-1.3698 2.9344-2.4144 4.8919-2.8118 0.52076-0.10586 1.0407-0.1632 1.5493-0.17183zm23.215 0.0154c0.34368-0.0225 1.3971-7e-3 1.7441 0.0258 1.7187 0.16004 3.3072 0.64866 4.7481 1.4608 2.0016 1.129 3.5863 2.7929 4.5549 4.7856 0.18119 0.3733 0.45049 1.0169 0.45049 1.0789 0 7e-3 -0.80777 0.0137-1.7933 0.0137h-1.7948l-0.0879-0.15144c-0.35556-0.60057-0.75879-1.1204-1.2617-1.6245-0.31327-0.31485-0.50106-0.4817-0.82269-0.72788-1.7408-1.3387-3.8473-1.9304-5.9928-1.6862-1.805 0.2082-3.4154 0.90836-4.7514 2.0666-0.29121 0.25466-0.77714 0.76579-1.0244 1.0789-0.84663 1.0756-1.4105 2.335-1.639 3.6687-0.10156 0.59705-0.14409 1.3903-0.1035 1.9789 0.0848 1.2115 0.37766 2.3095 0.89052 3.3385 1.1735 2.3489 3.3918 3.9974 5.9573 4.4312 0.47578 0.0791 0.7568 0.10478 1.2903 0.11521 2.313 0.0464 4.1705-0.59204 5.7436-1.9705 0.56716-0.49732 1.2175-1.2303 1.6678-1.8807l0.14048-0.20318h1.7831c0.97872-2e-3 1.7815 2e-3 1.7815 7e-3s-0.0711 0.16188-0.15755 0.34777c-0.5079 1.0995-1.1718 2.1269-1.9457 3.0078-0.24214 0.27698-0.73978 0.77956-0.98688 0.9999-2.3877 2.1166-5.4307 3.0871-8.7378 2.7858-2.3926-0.21851-4.6412-1.1269-6.4682-2.6137-0.43689-0.35454-0.96864-0.86732-1.3446-1.2923-2.137-2.4248-3.1342-5.6254-2.7685-8.8879 0.14894-1.3321 0.57732-2.7224 1.209-3.9218 0.71623-1.3628 1.678-2.5432 2.9038-3.5654 0.38452-0.32007 0.98567-0.74338 1.4565-1.0221 1.629-0.96881 3.4119-1.5144 5.3592-1.6434zm46.261 0.43009h3.2679v9.1375h9.059v3.3727h-9.059v9.6711h-3.2681v-9.6711h-9.0592v-3.3727h9.0592zm-114.18 27.495 4.4078 9e-3c2.7246 5e-3 4.5381 0.0156 4.7532 0.0275 1.8304 0.0946 3.0224 0.30626 4.2076 0.74342 2.4062 0.88971 4.2606 2.7567 5.0023 5.0349 0.14058 0.43376 0.25728 0.99648 0.30976 1.4851 0.0321 0.30466 0.027 1.1256-0.0102 1.4284-0.0423 0.35283-0.10151 0.67292-0.18126 0.97236-0.39786 1.4953-1.3713 2.8115-2.9056 3.9267l-0.24552 0.17717 0.0798 0.0344c0.25898 0.11357 0.3504 0.15657 0.61799 0.29089 1.3343 0.67616 2.3926 1.5987 3.1409 2.7379 0.71297 1.0875 1.1022 2.2404 1.2294 3.648 0.0321 0.34593 0.0271 1.122-8e-3 1.4456-0.13549 1.2699-0.5555 2.4488-1.2582 3.5346-0.29461 0.45608-0.59763 0.83449-1.004 1.2561-0.66375 0.6866-1.3429 1.1856-2.193 1.609-1.3732 0.68661-2.7719 1.0463-4.6313 1.1977-1.0852 0.0861-1.7268 0.0963-6.717 0.10656l-4.5941 9e-3zm7.5948 2.9977c-0.23209 7e-3 -1.2478 0.0139-2.2555 0.0156l-1.8338 2e-3v9.5502h2.1556c2.0845 0 3.0885-0.0154 3.6355-0.0515 1.4749-0.0998 2.5466-0.36144 3.478-0.84846 0.47409-0.24774 0.81448-0.50412 1.187-0.89129 0.55528-0.57995 0.93643-1.263 1.1261-2.0202 0.16094-0.64013 0.16426-1.2629 8e-3 -1.8756-0.19476-0.77432-0.64504-1.5522-1.2531-2.1683-0.93291-0.94479-2.1744-1.4558-3.9878-1.6416-0.63308-0.0654-1.5018-0.0931-2.2603-0.0706zm26.517 4.1816c1.2057 0.0569 2.2725 0.27702 3.3951 0.70033 1.1006 0.4147 2.2402 1.0756 3.1664 1.8361 0.48767 0.39931 1.1279 1.0239 1.5021 1.4644 0.87548 1.029 1.5645 2.2458 1.9929 3.5157 0.44876 1.3318 0.65024 2.6741 0.73144 4.8853l0.0102 0.29754h-9.6619c-7.718 0-9.6622 5e-3 -9.6622 0.021 0 0.012 0.012 0.12741 0.0273 0.25468 0.22008 1.948 1.3596 3.8651 3.0884 5.2037 1.4377 1.1135 3.1141 1.714 4.7736 1.714 1.8522-2e-3 3.7015-0.62662 5.1662-1.7487 0.99074-0.75879 1.773-1.7205 2.2708-2.7909l0.0982-0.21008h3.3375l-0.0849 0.24449c-1.5661 4.524-6.126 7.7401-10.794 7.6127-1.7696-0.0482-3.3412-0.43188-4.86-1.1873-2.5959-1.2906-4.5802-3.5379-5.5708-6.3066-0.81452-2.2767-0.90431-4.9027-0.24552-7.255 0.79064-2.8221 2.5638-5.1693 5.0375-6.6681 0.30662-0.18587 0.97699-0.53178 1.3122-0.67458 1.5596-0.66937 3.3004-0.98785 4.9699-0.90863zm41.625 0c0.38606-0.0188 1.0565-7e-3 1.4782 0.0276 2.0388 0.16176 3.9285 0.86737 5.4354 2.0306 0.74665 0.57473 1.4225 1.299 1.9067 2.0442l0.0997 0.15321 5e-3 -1.8945 3e-3 -1.8963h3.0647v9.769c0 9.3697-5e-3 10.474-0.0507 11.207-0.13366 2.1512-0.63494 3.6154-1.7609 5.1366-0.51481 0.69351-0.9992 1.2099-1.6054 1.7036-1.7034 1.3922-4.1044 2.3626-6.524 2.6397-0.53179 0.062-0.81131 0.0773-1.3956 0.0757-0.6011 0-0.94645-0.0222-1.4476-0.0928-2.1133-0.30113-4.113-1.2475-5.7184-2.7067-1.3885-1.263-2.4096-2.8308-2.987-4.5895-0.0813-0.24932-0.2524-0.86565-0.2524-0.91551 0-7e-3 0.69954-0.012 1.5546-0.012h1.5526l0.0829 0.16009c0.38951 0.74353 0.83167 1.4196 1.3092 1.9995 1.3411 1.6313 3.0376 2.6053 5.051 2.8977 0.47422 0.0688 0.63667 0.0793 1.3461 0.0793 0.74169-2e-3 0.90446-0.0122 1.4631-0.10504 2.501-0.40961 4.5583-1.8395 5.5522-3.8545 0.44197-0.89832 0.64697-1.6934 0.73169-2.8549 0.0186-0.23573 0.044-2.2042 0.0321-2.2713-5e-3 -0.0258-0.0237-3e-3 -0.0729 0.0859-0.0999 0.18418-0.43321 0.68663-0.57719 0.86911-1.4105 1.7931-3.6763 2.9461-6.3907 3.2523-1.971 0.2236-3.9961-0.13421-5.918-1.043-1.292-0.61087-2.5484-1.516-3.4323-2.4694-1.0363-1.1202-1.7473-2.2371-2.257-3.5466-0.40138-1.0325-0.62311-2.0272-0.74164-3.3176-0.0287-0.31498-0.0287-1.6519 0-1.9618 0.15234-1.6554 0.56721-3.2007 1.2225-4.5515 0.31837-0.65722 0.48084-0.91364 0.9313-1.471 0.38428-0.4767 0.65192-0.78135 0.99913-1.1427 2.0963-2.1769 4.482-3.2972 7.3098-3.4349zm25.836 0c2.0931 0.0999 4.0184 0.74859 5.7794 1.948 0.68751 0.4698 1.2089 0.91361 1.832 1.5554 0.40647 0.41992 0.6063 0.65242 0.88236 1.0274 1.5052 2.0409 2.1744 4.2607 2.2759 7.5492 5e-3 0.16527 0.0132 0.37326 0.0184 0.45941l9e-3 0.16012h-19.341l0.0103 0.0979c0.0711 0.65396 0.17756 1.1357 0.37401 1.6864 0.68242 1.9152 2.2388 3.631 4.164 4.5895 1.0904 0.54366 2.2216 0.81914 3.3594 0.81914 1.6695-2e-3 3.3545-0.51271 4.743-1.442 1.1937-0.79676 2.1285-1.8639 2.694-3.0736l0.10835-0.23404h1.6561c0.90929 0 1.6543 3e-3 1.6543 9e-3 0 0.0292-0.22699 0.63152-0.33193 0.88107-0.93801 2.2302-2.6822 4.1953-4.8378 5.4497-1.446 0.84141-2.9261 1.3249-4.55 1.4851-0.56885 0.0551-1.5525 0.0379-2.2264-0.0395-5.0325-0.57826-8.9965-4.3572-9.8465-9.3853-0.12361-0.73307-0.16112-1.2114-0.16112-2.0477 0-0.6883 0.0122-0.91529 0.078-1.4626 0.34028-2.8858 1.707-5.4859 3.8678-7.3564 0.8837-0.76584 1.9844-1.4368 3.0782-1.8738 1.4883-0.59717 3.1308-0.87595 4.7106-0.80206zm-45.973 0.21009c0.11156-2e-3 0.37052 5e-3 0.57543 0.0137 2.2959 0.10669 4.2026 0.81562 5.7131 2.1216 0.49446 0.42842 1.1801 1.2096 1.5391 1.7517 0.59106 0.8948 0.94833 1.9326 1.1363 3.3023 0.0778 0.56456 0.13691 1.4507 0.13691 2.0426v0.29752h-3.2508v-0.20295c0-0.61611-0.0882-1.3854-0.22027-1.9136-0.38769-1.552-1.4749-2.9081-2.9209-3.6445-0.86518-0.44054-1.8828-0.65075-2.8447-0.59044-0.64678 0.0412-1.199 0.1533-1.7357 0.35131-0.75186 0.27869-1.3666 0.66738-1.9202 1.2146-0.27098 0.27021-0.45031 0.4854-0.6213 0.74699-0.50124 0.76569-0.76531 1.6088-0.87039 2.772-0.0542 0.59377-0.0594 1.3181-0.0594 7.7661v6.4754h-3.1664v-22.026h3.014v2.4161l0.13385-0.20141c0.54851-0.82418 1.3174-1.5058 2.2114-1.96 0.92623-0.4733 1.9932-0.72096 3.1498-0.73297zm68.384 0.0135c1.5494 0.0739 2.8481 0.39576 4.0386 1.0014 1.1547 0.58858 2.0321 1.3301 2.9344 2.4883 0.88227 1.1304 1.3477 2.5363 1.5019 4.5291 0.0221 0.28221 0.0594 1.1736 0.0594 1.4231v0.0739h-3.2478l-0.0103-0.10835c-5e-3 -0.0586-0.0135-0.24264-0.0186-0.40944-0.0322-1.0996-0.24225-1.9946-0.65368-2.7843-0.28612-0.54719-0.60956-0.98437-1.0667-1.4404-1.2582-1.2492-3.009-1.8172-4.7988-1.5539-1.2174 0.17899-2.2775 0.69006-3.0953 1.4937-0.41145 0.40438-0.67764 0.77082-0.92827 1.2768-0.36563 0.74167-0.545 1.5402-0.60754 2.7001-0.0102 0.20468-0.0171 2.7223-0.0171 7.0587v6.742h-3.1835v-22.026h3.014v2.4278l0.13411-0.20295c1.0531-1.5935 2.8414-2.5657 4.9393-2.6879 0.34879-0.0205 0.60113-0.0207 1.0058-2e-3zm-90.625 2.9357c-1.2886 0.0705-2.4163 0.36849-3.4798 0.91907-2.0996 1.0876-3.6051 2.9822-4.1842 5.2623-0.0406 0.16174-0.0744 0.30805-0.0744 0.32175 0 0.0223 0.90241 0.0257 8.0094 0.0257h8.0094l-0.0102-0.0482c-0.0355-0.1599-0.12185-0.47674-0.1879-0.68326-0.71623-2.2508-2.4115-4.1469-4.5704-5.1124-0.78397-0.3493-1.5713-0.56107-2.4281-0.65062-0.24553-0.0257-0.87544-0.0463-1.0838-0.0342zm67.47 2e-3c-1.7087 0.0809-3.3341 0.67116-4.6821 1.6985-0.44682 0.33911-1.0804 0.94658-1.4037 1.344-0.67565 0.8294-1.1565 1.7054-1.4698 2.6759-0.0711 0.22021-0.20829 0.73797-0.20829 0.78625 0 0.0188 1.4427 0.0222 8.0262 0.0222 6.4091 0 8.0264-5e-3 8.0264-0.0222 0-0.0448-0.12374-0.49718-0.20166-0.73475-0.12009-0.36483-0.22359-0.62121-0.39799-0.98945-0.43688-0.91555-0.9634-1.6554-1.6984-2.3832-0.66543-0.66089-1.3376-1.1445-2.164-1.5575-0.39617-0.19788-0.63152-0.29764-1.0328-0.43365-0.88736-0.30282-1.9016-0.44907-2.7939-0.40613zm-25.066 5e-3c-1.4834 0.0999-2.8599 0.61106-4.0587 1.5042-0.60123 0.44915-1.1972 1.0513-1.6543 1.6707-1.1922 1.6194-1.741 3.6137-1.57 5.713 0.0627 0.78815 0.20673 1.5093 0.44716 2.2371 0.2997 0.91555 0.70621 1.7037 1.2666 2.4592 0.6148 0.82758 1.4358 1.5675 2.3062 2.075 0.98057 0.57302 2.0321 0.9104 3.2258 1.0361 0.27935 0.0291 1.2903 0.0291 1.5832 0 1.121-0.11355 1.9607-0.3493 2.8276-0.79339 0.75018-0.38546 1.343-0.83459 1.9983-1.5177 0.90942-0.94647 1.6154-2.146 2.0574-3.4915 0.3472-1.06 0.48441-2.0597 0.42344-3.0802-0.12871-2.0907-0.93145-3.9406-2.3284-5.3602-1.3886-1.4127-3.2375-2.2578-5.3169-2.4332-0.30153-0.0259-0.95-0.0363-1.2074-0.0192zm-72.257 5.2297v11.13l2.706 9e-3c1.4866 5e-3 2.9259 3e-3 3.1952-5e-3 2.5992-0.0825 4.2925-0.54366 5.4523-1.4902 1.0466-0.85186 1.7797-2.0529 1.9794-3.2404 0.10156-0.60228 0.0627-1.4128-0.10146-2.0821-0.21512-0.88278-0.64196-1.6449-1.2836-2.2988-0.36236-0.36824-0.69745-0.62814-1.136-0.8862-0.96006-0.56101-2.3267-0.91916-4.0218-1.0567-0.79415-0.0637-0.91608-0.0652-3.8555-0.0722z" stroke-width=".13053"/>
</svg>
