<svg width="2048pt" height="2048pt" preserveAspectRatio="xMidYMid" version="1.0" viewBox="0 0 2048 2048" xmlns="http://www.w3.org/2000/svg">
	<path d="M411.123 1024v612.877h1225.754V411.123H411.123Zm345.063-80.285v11.47h-112.47v78.438h108.968v22.807H643.716v80.417h112.47v22.674H616.864V932.246h139.322zm517.207 28.502v39.958l.973-1.437c1.7-2.518 3.048-4.14 5.643-6.79 2.477-2.543 4.592-4.363 7.018-6.077 8.134-5.747 17.733-9.307 28.266-10.454 1.038-.118 3.374-.25 5.19-.29 16.785-.383 33.766 5.155 47.089 15.385 5.137 3.941 10.274 9.202 14.23 14.567 8.069 10.955 12.415 23.637 13.725 40.01.428 5.458.455 8.635.455 55.527v46.905h-24.765l-.053-48.487c-.038-52.758 0-49.753-.752-55.79-1.038-8.424-3.295-15.45-6.966-21.673-3.477-5.88-9.47-11.64-16.177-15.53-10.325-5.985-23.285-8.252-34.778-6.103-11.338 2.135-22.274 8.41-29.525 16.94-5.098 5.985-7.965 13.934-8.99 24.85-.493 5.286-.493 5.655-.545 56.251l-.052 49.542h-24.764V932.246h24.778zM853.09 987.22c19.212 1.225 35.66 9.544 48.282 24.414.48.554 1.57 2.083 2.44 3.401l1.582 2.413 1.038-2.03c1.31-2.544 1.816-3.322 3.554-5.458 8.562-10.494 22.481-18.496 37.477-21.54 7.979-1.622 15.93-1.754 23.22-.397 13.972 2.611 28.164 10.916 41.2 24.112 4.178 4.232 6.89 7.963 9.263 12.762 3.918 7.962 5.669 15.648 6.577 29.029.104 1.542.155 17.124.195 53.878l.051 51.717h-24.66l-.04-51.255c-.025-38.23-.077-51.638-.194-52.825-.531-5.43-.92-8.068-1.711-11.35-1.492-6.288-3.854-11.258-7.59-16.004-7.303-9.294-16.617-14.832-27.696-16.48-12.025-1.779-23.92 1.438-33.728 9.15-.752.58-2.387 2.11-3.645 3.375-3.45 3.48-4.994 5.576-6.72 9.109-2.516 5.129-3.813 11.206-4.293 20.025-.078 1.569-.13 20.882-.13 54.34v51.915h-24.647l-.039-52.705c-.039-57.505.013-53.563-.74-58.559-1.167-7.712-4.307-14.884-8.99-20.58-9.261-11.23-22.649-17.334-36.153-16.464-9.523.606-17.89 3.743-25.037 9.372-2.802 2.202-6.447 6.223-8.146 8.952-4.113 6.67-5.968 13.697-6.512 24.639-.078 1.74-.13 20.842-.13 54.01v51.335H782.52V990.647h23.35v18.773l1.155-1.754c6.966-10.493 17.759-17.335 31.081-19.708 1.713-.303 4.956-.686 6.551-.779 1.778-.104 6.487-.078 8.433.04zm297.455.197c13.167 1.226 25.335 4.97 36.374 11.192 15.334 8.649 27.476 21.397 34.896 36.663 1.388 2.86 3.45 7.79 3.45 8.265 0 .053-6.187.106-13.737.106h-13.75l-.675-1.16c-2.724-4.601-5.812-8.583-9.665-12.445-2.4-2.412-3.84-3.691-6.304-5.577-13.336-10.256-29.474-14.79-45.91-12.919-13.828 1.595-26.165 6.96-36.4 15.833-2.231 1.951-5.954 5.866-7.848 8.265-6.486 8.24-10.806 17.89-12.557 28.107-.778 4.574-1.103 10.651-.792 15.16.65 9.281 2.894 17.692 6.823 25.575 8.99 17.995 25.984 30.624 45.638 33.947 3.645.606 5.798.803 9.885.883 17.72.355 31.95-4.535 44.002-15.095 4.345-3.81 9.327-9.426 12.777-14.409l1.077-1.556h13.66c7.498-.012 13.647.014 13.647.053 0 .04-.545 1.24-1.207 2.664-3.891 8.423-8.976 16.294-14.905 23.043-1.855 2.122-5.669 5.972-7.562 7.66-18.292 16.215-41.603 23.65-66.938 21.342-18.33-1.674-35.557-8.634-49.554-20.024-3.347-2.716-7.42-6.644-10.3-9.9-16.371-18.576-24.012-43.096-21.21-68.09 1.141-10.205 4.424-20.856 9.263-30.045 5.487-10.44 12.855-19.484 22.246-27.315 2.946-2.452 7.55-5.695 11.157-7.83 12.48-7.422 26.14-11.602 41.058-12.59 2.633-.172 10.702-.053 13.36.197zm366.08 38.099v35.001h69.4v25.838h-69.4v74.09h-25.038v-74.09h-69.402v-25.838h69.402v-70.002h25.037zM687.042 1201.43c14.023.725 23.156 2.346 32.236 5.695 18.434 6.816 32.639 21.12 38.321 38.573 1.077 3.323 1.972 7.634 2.374 11.377.246 2.334.207 8.622-.078 10.942-.324 2.703-.778 5.155-1.389 7.449-3.048 11.455-10.506 21.54-22.26 30.083l-1.88 1.358.61.263c1.984.87 2.684 1.2 4.734 2.229 10.222 5.18 18.33 12.247 24.063 20.974 5.462 8.331 8.445 17.164 9.419 27.948.246 2.65.207 8.595-.065 11.074-1.038 9.729-4.256 18.759-9.639 27.077-2.257 3.494-4.579 6.394-7.692 9.624-5.085 5.26-10.287 9.083-16.8 12.326-10.52 5.26-21.235 8.015-35.48 9.175-8.314.66-13.23.739-51.46.818l-35.194.065v-227.327l33.767.066c20.873.04 34.766.119 36.414.21zm191.147 54.722c9.237.436 17.41 2.123 26.01 5.366 8.432 3.177 17.162 8.24 24.258 14.066 3.736 3.059 8.64 7.844 11.507 11.219 6.707 7.883 11.986 17.204 15.268 26.933 3.438 10.203 4.982 20.486 5.604 37.426l.078 2.28h-74.02c-59.127 0-74.02.04-74.02.16 0 .091.091.975.208 1.95 1.686 14.924 10.417 29.61 23.661 39.865 11.014 8.53 23.857 13.131 36.57 13.131 14.19-.014 28.357-4.799 39.578-13.395 7.59-5.813 13.582-13.182 17.396-21.382l.752-1.608h25.569l-.65 1.872c-11.998 34.658-46.933 59.297-82.697 58.321-13.557-.369-25.595-3.309-37.231-9.096-19.887-9.887-35.09-27.104-42.679-48.315-6.24-17.442-6.927-37.559-1.88-55.58 6.057-21.62 19.64-39.602 38.591-51.084 2.349-1.424 7.486-4.074 10.054-5.168 11.948-5.128 25.284-7.567 38.074-6.96zm330.21.212c15.62 1.239 30.097 6.643 41.642 15.555 5.72 4.403 10.897 9.953 14.607 15.662l.765 1.173.04-14.514.025-14.528h23.48v74.84c0 71.781-.04 80.245-.39 85.86-1.024 16.48-4.864 27.698-13.49 39.352-3.944 5.313-7.654 9.268-12.298 13.05-13.05 10.666-31.445 18.101-49.982 20.224-4.074.475-6.214.592-10.69.58-4.605 0-7.251-.171-11.09-.712-16.19-2.307-31.51-9.558-43.809-20.737-10.637-9.676-18.459-21.686-22.882-35.16-.623-1.91-1.934-6.63-1.934-7.012 0-.053 5.358-.093 11.909-.093h11.895l.636 1.226c2.984 5.696 6.37 10.876 10.028 15.319 10.274 12.497 23.272 19.96 38.696 22.2 3.633.527 4.878.606 10.313.606 5.682-.013 6.928-.092 11.208-.803 19.16-3.138 34.922-14.093 42.536-29.53 3.386-6.882 4.956-12.973 5.605-21.871.142-1.806.337-16.887.246-17.401-.039-.198-.181-.027-.558.658-.765 1.411-3.32 5.26-4.423 6.658-10.806 13.737-28.163 22.57-48.958 24.916-15.1 1.713-30.614-1.028-45.338-7.99-9.898-4.68-19.523-11.613-26.295-18.917-7.939-8.582-13.387-17.138-17.292-27.17-3.075-7.91-4.774-15.53-5.682-25.416-.22-2.413-.22-12.656 0-15.03 1.167-12.682 4.346-24.52 9.366-34.869 2.439-5.035 3.684-7 7.135-11.27 2.944-3.652 4.994-5.986 7.654-8.754 16.06-16.677 34.337-25.259 56.001-26.314 2.958-.144 8.095-.052 11.325.212zm186.607-.212c16.035.765 30.784 5.735 44.275 14.924 5.267 3.599 9.262 7 14.036 11.917 3.114 3.217 4.645 4.997 6.76 7.87 11.531 15.635 16.656 32.641 17.434 57.834.039 1.266.103 2.86.142 3.52l.066 1.226h-148.17l.077.751c.545 5.01 1.362 8.701 2.867 12.92 5.228 14.672 17.15 27.816 31.899 35.159 8.354 4.165 17.02 6.275 25.737 6.275 12.79-.014 25.699-3.928 36.336-11.047 9.145-6.104 16.306-14.278 20.638-23.546l.83-1.792h12.688c6.966 0 12.674.026 12.674.066 0 .224-1.739 4.838-2.543 6.75-7.186 17.085-20.548 32.14-37.062 41.75-11.078 6.446-22.416 10.15-34.857 11.377-4.358.422-11.895.29-17.058-.303-38.554-4.43-68.922-33.38-75.434-71.9-.947-5.616-1.233-9.281-1.233-15.688 0-5.273.092-7.013.597-11.206 2.607-22.108 13.077-42.027 29.63-56.357 6.77-5.867 15.203-11.008 23.583-14.356 11.402-4.575 23.985-6.71 36.088-6.144zm-347.787 1.715c17.59.817 32.197 6.248 43.769 16.254 3.788 3.282 9.041 9.267 11.791 13.42 4.528 6.855 7.265 14.805 8.705 25.298.596 4.325 1.05 11.114 1.05 15.649v2.28h-24.906v-1.555c0-4.72-.674-10.613-1.686-14.66-2.97-11.89-11.3-22.28-22.378-27.921-6.628-3.375-14.424-4.984-21.793-4.522-4.955.316-9.185 1.173-13.296 2.69-5.76 2.135-10.47 5.114-14.711 9.306-2.076 2.07-3.45 3.718-4.76 5.722-3.84 5.866-5.864 12.326-6.669 21.237-.415 4.549-.454 10.098-.454 59.496v49.607h-24.258v-168.742h23.09v18.509l1.026-1.543c4.202-6.314 10.092-11.535 16.941-15.015 7.096-3.626 15.269-5.524 24.13-5.616.855-.014 2.84.04 4.41.106zm519.476 0c11.87.566 21.82 3.032 30.94 7.672 8.846 4.509 15.567 10.19 22.48 19.063 6.759 8.66 10.326 19.43 11.507 34.697.169 2.162.454 8.991.454 10.903v.566h-24.881l-.078-.83c-.039-.449-.103-1.86-.142-3.138-.247-8.424-1.856-15.28-5.008-21.33-2.192-4.192-4.67-7.54-8.172-11.034-9.639-9.57-23.052-13.922-36.764-11.905-9.327 1.371-17.448 5.287-23.713 11.444-3.152 3.098-5.19 5.905-7.11 9.781-2.801 5.682-4.177 11.799-4.656 20.685-.078 1.568-.13 20.855-.13 54.076v51.651h-24.388v-168.742h23.09v18.6l1.026-1.555c8.068-12.208 21.768-19.656 37.84-20.592 2.672-.158 4.605-.158 7.705-.013z"/>
	<path d="M675.045 1224.118c-1.778.053-9.56.106-17.28.119l-14.049.013v73.165h16.514c15.969 0 23.661-.118 27.852-.395 11.299-.765 19.51-2.769 26.645-6.5 3.632-1.898 6.24-3.862 9.094-6.828 4.254-4.443 7.173-9.676 8.626-15.477 1.233-4.904 1.259-9.676.065-14.37-1.492-5.932-4.942-11.89-9.6-16.61-7.147-7.238-16.657-11.153-30.55-12.576-4.85-.501-11.506-.713-17.317-.541zm-31.328 138.988v42.634l20.73.066c11.389.04 22.415.026 24.478-.04 19.912-.632 32.885-4.165 41.77-11.416 8.018-6.526 13.635-15.727 15.165-24.824.778-4.614.48-10.823-.778-15.951-1.648-6.763-4.917-12.603-9.833-17.613-2.776-2.821-5.345-4.812-8.705-6.789-7.355-4.298-17.823-7.04-30.809-8.094-6.084-.488-7.018-.501-29.537-.554l-22.482-.053zm228.701-82.75c-9.872.54-18.511 2.822-26.658 7.04-16.085 8.332-27.618 22.846-32.054 40.314-.311 1.239-.571 2.36-.571 2.465 0 .171 6.914.198 61.36.198h61.358l-.078-.37c-.272-1.225-.934-3.651-1.44-5.233-5.487-17.243-18.473-31.77-35.012-39.167-6.006-2.676-12.038-4.297-18.602-4.983-1.881-.197-6.707-.356-8.303-.263zm324.853.053c-11.364.765-21.91 4.68-31.094 11.522-4.606 3.441-9.172 8.055-12.674 12.8-9.133 12.406-13.336 27.685-12.026 43.768.48 6.038 1.583 11.562 3.425 17.138 2.296 7.014 5.41 13.051 9.703 18.839 4.71 6.34 11 12.01 17.668 15.898 7.512 4.39 15.568 6.974 24.713 7.937 2.14.223 9.885.223 12.129 0 8.588-.87 15.022-2.676 21.663-6.078 5.747-2.953 10.288-6.394 15.308-11.627 6.967-7.251 12.375-16.44 15.761-26.748 2.66-8.121 3.711-15.78 3.244-23.598-.986-16.017-7.135-30.189-17.837-41.065-10.638-10.823-24.803-17.296-40.733-18.64-2.31-.198-7.278-.278-9.25-.146zm192.03-.04c-13.09.62-25.543 5.142-35.87 13.012-3.423 2.598-8.276 7.251-10.753 10.296-5.176 6.354-8.86 13.065-11.26 20.5-.545 1.687-1.596 5.655-1.596 6.025 0 .144 11.053.17 61.489.17 49.1 0 61.489-.039 61.489-.17 0-.343-.947-3.81-1.544-5.63-.92-2.795-1.712-4.759-3.048-7.58-3.347-7.014-7.381-12.682-13.012-18.258-5.098-5.063-10.247-8.767-16.578-11.931-3.035-1.516-4.839-2.28-7.913-3.322-6.798-2.32-14.568-3.441-21.404-3.112z"/>
</svg>